<?xml version="1.0" encoding="UTF-8" standalone="no"?>
<!-- Uploaded to: SVG Repo, www.svgrepo.com, Generator: SVG Repo Mixer Tools -->

<svg
   width="666.66669"
   height="666.66669"
   viewBox="0 0 20.000001 20.000001"
   fill="none"
   version="1.1"
   id="svg4"
   xmlns="http://www.w3.org/2000/svg"
   xmlns:svg="http://www.w3.org/2000/svg">
  <defs
     id="defs8" />
  <path
     fill-rule="evenodd"
     clip-rule="evenodd"
     d="M 20,10 C 20,15.5228 15.5228,20 10,20 4.47715,20 0,15.5228 0,10 0,4.47715 4.47715,0 10,0 15.5228,0 20,4.47715 20,10 Z M 5.005,7 C 5.005,6.45 5.45,6 6,6 h 8 c 0.55,0 1,0.45 1,1 v 6 c 0,0.55 -0.45,1 -1,1 H 6 C 5.45,14 5,13.55 5,13 Z M 10,10.5 6.00001,7.99997 V 13 H 14 V 7.99997 Z M 10,9.5 6.00001,7.00001 H 14 Z"
     fill="#000000"
     id="path2" />
</svg>
