<?xml version="1.0" encoding="UTF-8"?>
<!DOCTYPE svg PUBLIC "-//W3C//DTD SVG 1.1//EN" "http://www.w3.org/Graphics/SVG/1.1/DTD/svg11.dtd">
<!-- Creator: CorelDRAW -->
<svg xmlns="http://www.w3.org/2000/svg" xml:space="preserve" width="10.3155mm" height="10.3223mm" version="1.1" style="shape-rendering:geometricPrecision; text-rendering:geometricPrecision; image-rendering:optimizeQuality; fill-rule:evenodd; clip-rule:evenodd"
viewBox="0 0 32.55 32.58"
 xmlns:xlink="http://www.w3.org/1999/xlink"
 xmlns:xodm="http://www.corel.com/coreldraw/odm/2003">
 <defs>
  <style type="text/css">
   <![CDATA[
    .fil0 {fill:white}
   ]]>
  </style>
 </defs>
 <g id="Camada_x0020_1">
  <metadata id="CorelCorpID_0Corel-Layer"/>
  <g>
   <path class="fil0" d="M32.55 16.29l-0 0.02 0 0c0,0.02 0,0.04 -0,0.05 -0.02,0.43 -0.19,0.86 -0.52,1.19l-14.49 14.49c-0.31,0.31 -0.71,0.48 -1.12,0.52 -0.07,0.02 -0.15,0.02 -0.23,0 -0.43,-0.02 -0.85,-0.19 -1.18,-0.52l-14.49 -14.49c-0.32,-0.32 -0.49,-0.73 -0.52,-1.15l0 -0 0 -0c-0,-0.02 -0,-0.04 -0,-0.06l0 -0.01 -0 -0.04c0,-0.46 0.17,-0.92 0.52,-1.26l14.49 -14.49c0.33,-0.33 0.77,-0.51 1.2,-0.52 0.08,-0.02 0.15,-0.02 0.23,0.01 0.4,0.04 0.79,0.21 1.09,0.51l14.49 14.49c0.35,0.35 0.52,0.81 0.52,1.26zm-2.05 0.24c-0.05,-0.06 -0.12,-0.11 -0.2,-0.13 -0.21,-0.06 -0.43,0.07 -0.48,0.28 -0.02,0.08 -0.02,0.16 0.01,0.23l0.68 -0.38zm-20.22 -6.08c-0.01,-0.01 -0.02,-0.02 -0.03,-0.02 -0.18,-0.12 -0.43,-0.08 -0.55,0.1 -0.06,0.08 -0.08,0.18 -0.07,0.28l0 0 -0.23 0.13 0 0c-0.02,-0.03 -0.05,-0.06 -0.08,-0.08 -0.18,-0.12 -0.43,-0.08 -0.55,0.1 -0.07,0.11 -0.09,0.24 -0.05,0.35l-0.16 0.09c-0.03,-0.05 -0.07,-0.09 -0.11,-0.12 -0.18,-0.12 -0.43,-0.08 -0.55,0.1 -0.08,0.12 -0.09,0.28 -0.03,0.4l-0.21 0.12c-0.03,-0.07 -0.08,-0.14 -0.15,-0.19 -0.18,-0.12 -0.43,-0.08 -0.55,0.1 -0.1,0.14 -0.09,0.33 0.01,0.46l-0.17 0.09c-0.02,-0.09 -0.08,-0.18 -0.16,-0.24 -0.18,-0.12 -0.43,-0.08 -0.55,0.1 -0.11,0.16 -0.09,0.37 0.05,0.5l-0.26 0.14c-0,-0.12 -0.06,-0.24 -0.17,-0.32 -0.09,-0.06 -0.19,-0.08 -0.29,-0.06l0.22 -0.22c0.11,-0.01 0.21,-0.07 0.28,-0.17 0.04,-0.06 0.06,-0.12 0.07,-0.18l0.19 -0.19c0.02,0.02 0.04,0.04 0.06,0.05 0.18,0.12 0.43,0.08 0.55,-0.1 0.11,-0.16 0.09,-0.38 -0.05,-0.51l0.31 -0.31c-0.08,0.17 -0.03,0.38 0.13,0.49 0.18,0.12 0.43,0.08 0.55,-0.1 0.12,-0.18 0.08,-0.43 -0.1,-0.55 -0.12,-0.08 -0.27,-0.09 -0.39,-0.03l0.24 -0.24c0.12,-0.01 0.23,-0.07 0.3,-0.17 0.04,-0.06 0.06,-0.13 0.07,-0.2l0.22 -0.22c0.03,0.03 0.06,0.07 0.09,0.09 0.18,0.12 0.43,0.08 0.55,-0.1 0.12,-0.18 0.08,-0.42 -0.09,-0.54l0.3 -0.3c-0.1,0.18 -0.06,0.41 0.12,0.53 0.18,0.12 0.43,0.08 0.55,-0.1 0.12,-0.18 0.08,-0.43 -0.1,-0.55 -0.13,-0.09 -0.3,-0.09 -0.43,-0.02l0.27 -0.27c0.14,0.01 0.28,-0.05 0.37,-0.17 0.06,-0.08 0.08,-0.17 0.07,-0.27l0.15 -0.15c0.03,0.04 0.06,0.07 0.1,0.1 0.18,0.12 0.43,0.08 0.55,-0.1 0.12,-0.18 0.08,-0.43 -0.1,-0.55l-0 -0 0.7 -0.7c0.14,0.02 0.29,-0.04 0.38,-0.17 0.06,-0.09 0.08,-0.19 0.07,-0.28l0.19 -0.19c0.03,0.06 0.07,0.11 0.13,0.14 0.18,0.12 0.43,0.08 0.55,-0.1 0.12,-0.18 0.08,-0.43 -0.1,-0.55 -0.01,-0.01 -0.03,-0.02 -0.04,-0.03l0.69 -0.69c0.16,0.05 0.34,-0.01 0.44,-0.15 0.07,-0.1 0.09,-0.23 0.05,-0.34l0.14 -0.14c0.01,0.03 0.03,0.06 0.05,0.08l0.16 -0.3 0 -0 -0.62 1.14c-0.18,-0.12 -0.42,-0.08 -0.55,0.1 -0.12,0.18 -0.08,0.43 0.1,0.55 0.02,0.02 0.05,0.03 0.07,0.04l-0.23 0.42c-0.01,0.02 -0.02,0.03 -0.02,0.05l0 0 -0.22 0.41c-0.03,-0.06 -0.07,-0.11 -0.13,-0.15 -0.18,-0.12 -0.43,-0.08 -0.55,0.1 -0.12,0.18 -0.08,0.43 0.1,0.55 0.08,0.06 0.17,0.08 0.27,0.07l-0.11 0.2c-0.12,0.01 -0.23,0.07 -0.3,0.17 -0.09,0.13 -0.09,0.29 -0.02,0.42l-0.47 0.87c-0.17,-0.08 -0.38,-0.03 -0.49,0.13 -0.12,0.18 -0.08,0.43 0.1,0.55 0.01,0 0.01,0.01 0.02,0.01l-0.39 0.71 -0.13 0.07zm-0.44 -0.37c0.18,0.12 0.43,0.08 0.55,-0.1 0.12,-0.18 0.08,-0.43 -0.1,-0.55 -0.18,-0.12 -0.43,-0.08 -0.55,0.1 -0.12,0.18 -0.08,0.43 0.1,0.55zm0.98 -1.42c0.18,0.12 0.43,0.08 0.55,-0.1 0.12,-0.18 0.08,-0.43 -0.1,-0.55 -0.18,-0.12 -0.43,-0.08 -0.55,0.1 -0.12,0.18 -0.08,0.43 0.1,0.55zm-1.86 1.84c0.18,0.12 0.43,0.08 0.55,-0.1 0.12,-0.18 0.08,-0.43 -0.1,-0.55 -0.18,-0.12 -0.43,-0.08 -0.55,0.1 -0.12,0.18 -0.08,0.43 0.1,0.55zm0.98 -1.42c0.18,0.12 0.43,0.08 0.55,-0.1 0.12,-0.18 0.08,-0.43 -0.1,-0.55 -0.18,-0.12 -0.43,-0.08 -0.55,0.1 -0.12,0.18 -0.08,0.43 0.1,0.55zm0.98 -1.42c0.18,0.12 0.43,0.08 0.55,-0.1 0.12,-0.18 0.08,-0.43 -0.1,-0.55 -0.18,-0.12 -0.43,-0.08 -0.55,0.1 -0.12,0.18 -0.08,0.43 0.1,0.55zm-2.9 3.27c0.18,0.12 0.43,0.08 0.55,-0.1 0.12,-0.18 0.08,-0.43 -0.1,-0.55 -0.18,-0.12 -0.43,-0.08 -0.55,0.1 -0.12,0.18 -0.08,0.43 0.1,0.55zm-2.79 2.27l0.01 0 -0.26 0.14c0.02,-0.12 -0.02,-0.25 -0.11,-0.33l0.21 -0.21c-0.02,0.15 0.03,0.3 0.16,0.39zm-0.87 0.42c0.02,0.01 0.04,0.02 0.06,0.03l-0.41 0.22 0.01 -0.02 0.28 -0.28c0.02,0.02 0.03,0.03 0.05,0.05zm25.15 3.46c-0.15,-0 -0.28,0.07 -0.36,0.2l0.26 -0.15 -0.57 0.32c0.03,-0.04 0.05,-0.09 0.07,-0.14 0.06,-0.21 -0.07,-0.43 -0.28,-0.48 -0.21,-0.06 -0.43,0.07 -0.48,0.28 -0.06,0.21 0.07,0.43 0.28,0.48 0.05,0.01 0.1,0.02 0.14,0.01l-1.46 0.82 0.23 -0.13c-0.04,-0.03 -0.08,-0.05 -0.12,-0.06 -0.21,-0.06 -0.43,0.07 -0.48,0.28 -0.01,0.04 -0.02,0.08 -0.01,0.13l-0.93 0.52c0.04,-0.2 -0.08,-0.41 -0.28,-0.46 -0.21,-0.06 -0.43,0.07 -0.48,0.28 -0.05,0.2 0.06,0.41 0.25,0.47l0.28 -0.16 -1.45 0.81 -0.01 -0c-0.21,-0.06 -0.43,0.07 -0.48,0.28l0 0 -0.88 0.49c-0.02,-0.16 -0.13,-0.3 -0.29,-0.34 -0.21,-0.06 -0.43,0.07 -0.48,0.28 -0.04,0.16 0.02,0.32 0.14,0.42l-0.22 0.12c-0.05,-0.05 -0.11,-0.08 -0.18,-0.1 -0.11,-0.03 -0.23,-0.01 -0.32,0.05l-0.4 -0.1c-0.05,-0.1 -0.14,-0.18 -0.25,-0.21 -0.12,-0.03 -0.24,-0.01 -0.33,0.06l-0 0 -0.39 -0.1 0 0c-0.05,-0.1 -0.14,-0.19 -0.26,-0.22 -0.12,-0.03 -0.24,-0.01 -0.34,0.06l0 0 -0.38 -0.1c-0.05,-0.11 -0.14,-0.19 -0.26,-0.22 -0.12,-0.03 -0.25,-0 -0.34,0.07l-0.37 -0.1 0 0c-0.05,-0.11 -0.14,-0.2 -0.26,-0.23 -0.13,-0.03 -0.25,-0 -0.35,0.07l-0.36 -0.09c-0.04,-0.11 -0.14,-0.2 -0.27,-0.24 -0.13,-0.03 -0.26,-0 -0.35,0.08l-0.35 -0.09c-0.04,-0.12 -0.14,-0.21 -0.27,-0.24 -0.13,-0.03 -0.26,0 -0.36,0.08l-0.34 -0.09c-0.04,-0.12 -0.14,-0.22 -0.27,-0.25 -0.13,-0.04 -0.27,0 -0.36,0.09l-0.33 -0.09c-0.04,-0.12 -0.14,-0.22 -0.27,-0.26 -0.14,-0.04 -0.27,0 -0.37,0.09l-0.15 -0.04 -0.09 -0.36c0.05,0.04 0.1,0.08 0.17,0.09 0.21,0.06 0.43,-0.07 0.48,-0.28 0.06,-0.21 -0.07,-0.43 -0.28,-0.48 -0.2,-0.05 -0.41,0.06 -0.48,0.26l-0.13 -0.49c0.03,0.02 0.07,0.04 0.11,0.05 0.21,0.06 0.43,-0.07 0.48,-0.28 0.06,-0.21 -0.07,-0.43 -0.28,-0.48 -0.18,-0.05 -0.36,0.04 -0.45,0.19l-0.12 -0.47c0.04,0.03 0.08,0.05 0.13,0.06 0.21,0.06 0.43,-0.07 0.48,-0.28 0.06,-0.21 -0.07,-0.43 -0.28,-0.48 -0.19,-0.05 -0.38,0.04 -0.46,0.21l-0.11 -0.43c0.02,0.01 0.05,0.02 0.07,0.03 0.21,0.06 0.43,-0.07 0.48,-0.28 0.06,-0.21 -0.07,-0.43 -0.28,-0.48 -0.17,-0.04 -0.34,0.02 -0.43,0.16l-0.11 -0.41c0.03,0.02 0.06,0.03 0.09,0.04 0.21,0.06 0.43,-0.07 0.48,-0.28 0.06,-0.21 -0.07,-0.43 -0.28,-0.48 -0.17,-0.05 -0.35,0.03 -0.44,0.18l-0.1 -0.37c0.01,0 0.03,0.01 0.04,0.01 0.21,0.06 0.43,-0.07 0.48,-0.28 0.06,-0.21 -0.07,-0.43 -0.28,-0.48 -0.15,-0.04 -0.31,0.01 -0.4,0.13l-0.09 -0.36c0.02,0.01 0.04,0.01 0.06,0.02 0.21,0.06 0.43,-0.07 0.48,-0.28 0.06,-0.21 -0.07,-0.43 -0.28,-0.48 -0.16,-0.04 -0.32,0.02 -0.42,0.14l-0.09 -0.33 0.01 0c0.21,0.06 0.43,-0.07 0.48,-0.28 0.06,-0.21 -0.07,-0.43 -0.28,-0.48 -0.14,-0.04 -0.28,0.01 -0.38,0.1l-0.06 -0.25 19.3 5.08 -1.16 0.65zm-0.41 -0.17c0.21,0.06 0.43,-0.07 0.48,-0.28 0.06,-0.21 -0.07,-0.43 -0.28,-0.48 -0.21,-0.06 -0.43,0.07 -0.48,0.28 -0.06,0.21 0.07,0.43 0.28,0.48zm-0.93 0.92c-0.04,-0.13 -0.14,-0.24 -0.28,-0.28 -0.21,-0.06 -0.43,0.07 -0.48,0.28 -0.04,0.14 0,0.28 0.09,0.37l0.67 -0.37zm-0.04 -1.18c0.21,0.06 0.43,-0.07 0.48,-0.28 0.06,-0.21 -0.07,-0.43 -0.28,-0.48 -0.21,-0.06 -0.43,0.07 -0.48,0.28 -0.06,0.21 0.07,0.43 0.28,0.48zm-0.68 0.69c0.21,0.06 0.43,-0.07 0.48,-0.28 0.06,-0.21 -0.07,-0.43 -0.28,-0.48 -0.21,-0.06 -0.43,0.07 -0.48,0.28 -0.06,0.21 0.07,0.43 0.28,0.48zm-0.73 0.72c0.21,0.06 0.43,-0.07 0.48,-0.28 0.06,-0.21 -0.07,-0.43 -0.28,-0.48 -0.21,-0.06 -0.43,0.07 -0.48,0.28 -0.06,0.21 0.07,0.43 0.28,0.48zm0.44 -1.67c0.21,0.06 0.43,-0.07 0.48,-0.28 0.06,-0.21 -0.07,-0.43 -0.28,-0.48 -0.21,-0.06 -0.43,0.07 -0.48,0.28 -0.06,0.21 0.07,0.43 0.28,0.48zm-1.12 2.36c0.21,0.06 0.43,-0.07 0.48,-0.28 0.06,-0.21 -0.07,-0.43 -0.28,-0.48 -0.21,-0.06 -0.43,0.07 -0.48,0.28 -0.06,0.21 0.07,0.43 0.28,0.48zm0.44 -1.67c0.21,0.06 0.43,-0.07 0.48,-0.28 0.06,-0.21 -0.07,-0.43 -0.28,-0.48 -0.21,-0.06 -0.43,0.07 -0.48,0.28 -0.06,0.21 0.07,0.43 0.28,0.48zm-0.73 0.72c0.21,0.06 0.43,-0.07 0.48,-0.28 0.06,-0.21 -0.07,-0.43 -0.28,-0.48 -0.21,-0.06 -0.43,0.07 -0.48,0.28 -0.06,0.21 0.07,0.43 0.28,0.48zm0.44 -1.67c0.21,0.06 0.43,-0.07 0.48,-0.28 0.06,-0.21 -0.07,-0.43 -0.28,-0.48 -0.21,-0.06 -0.43,0.07 -0.48,0.28 -0.06,0.21 0.07,0.43 0.28,0.48zm-1.13 3.44c-0.05,-0.09 -0.13,-0.15 -0.24,-0.18 -0.21,-0.06 -0.43,0.07 -0.48,0.28 -0.03,0.1 -0.01,0.2 0.03,0.29l0.69 -0.39zm0 -1.09c0.21,0.06 0.43,-0.07 0.48,-0.28 0.06,-0.21 -0.07,-0.43 -0.28,-0.48 -0.21,-0.06 -0.43,0.07 -0.48,0.28 -0.06,0.21 0.07,0.43 0.28,0.48zm0.44 -1.67c0.21,0.06 0.43,-0.07 0.48,-0.28 0.06,-0.21 -0.07,-0.43 -0.28,-0.48 -0.21,-0.06 -0.43,0.07 -0.48,0.28 -0.06,0.21 0.07,0.43 0.28,0.48zm-1.18 2.39c0.21,0.06 0.43,-0.07 0.48,-0.28 0.06,-0.21 -0.07,-0.43 -0.28,-0.48 -0.21,-0.06 -0.43,0.07 -0.48,0.28 -0.06,0.21 0.07,0.43 0.28,0.48zm0.44 -1.67c0.21,0.06 0.43,-0.07 0.48,-0.28 0.06,-0.21 -0.07,-0.43 -0.28,-0.48 -0.21,-0.06 -0.43,0.07 -0.48,0.28 -0.06,0.21 0.07,0.43 0.28,0.48zm0.44 -1.67c0.21,0.06 0.43,-0.07 0.48,-0.28 0.06,-0.21 -0.07,-0.43 -0.28,-0.48 -0.21,-0.06 -0.43,0.07 -0.48,0.28 -0.06,0.21 0.07,0.43 0.28,0.48zm-1.57 4.02c0.21,0.06 0.43,-0.07 0.48,-0.28 0.06,-0.21 -0.07,-0.43 -0.28,-0.48 -0.21,-0.06 -0.43,0.07 -0.48,0.28 -0.06,0.21 0.07,0.43 0.28,0.48zm0.44 -1.67c0.21,0.06 0.43,-0.07 0.48,-0.28 0.06,-0.21 -0.07,-0.43 -0.28,-0.48 -0.21,-0.06 -0.43,0.07 -0.48,0.28 -0.06,0.21 0.07,0.43 0.28,0.48zm0.44 -1.67c0.21,0.06 0.43,-0.07 0.48,-0.28 0.06,-0.21 -0.07,-0.43 -0.28,-0.48 -0.21,-0.06 -0.43,0.07 -0.48,0.28 -0.06,0.21 0.07,0.43 0.28,0.48zm-1.62 4.06c0.21,0.06 0.43,-0.07 0.48,-0.28 0.06,-0.21 -0.07,-0.43 -0.28,-0.48 -0.21,-0.06 -0.43,0.07 -0.48,0.28 -0.06,0.21 0.07,0.43 0.28,0.48zm0.44 -1.67c0.21,0.06 0.43,-0.07 0.48,-0.28 0.06,-0.21 -0.07,-0.43 -0.28,-0.48 -0.21,-0.06 -0.43,0.07 -0.48,0.28 -0.06,0.21 0.07,0.43 0.28,0.48zm0.44 -1.67c0.21,0.06 0.43,-0.07 0.48,-0.28 0.06,-0.21 -0.07,-0.43 -0.28,-0.48 -0.21,-0.06 -0.43,0.07 -0.48,0.28 -0.06,0.21 0.07,0.43 0.28,0.48zm0.44 -1.67c0.21,0.06 0.43,-0.07 0.48,-0.28 0.06,-0.21 -0.07,-0.43 -0.28,-0.48 -0.21,-0.06 -0.43,0.07 -0.48,0.28 -0.06,0.21 0.07,0.43 0.28,0.48zm-1.57 4.02c0.21,0.06 0.43,-0.07 0.48,-0.28 0.06,-0.21 -0.07,-0.43 -0.28,-0.48 -0.21,-0.06 -0.43,0.07 -0.48,0.28 -0.06,0.21 0.07,0.43 0.28,0.48zm0.44 -1.67c0.21,0.06 0.43,-0.07 0.48,-0.28 0.06,-0.21 -0.07,-0.43 -0.28,-0.48 -0.21,-0.06 -0.43,0.07 -0.48,0.28 -0.06,0.21 0.07,0.43 0.28,0.48zm0.44 -1.67c0.21,0.06 0.43,-0.07 0.48,-0.28 0.06,-0.21 -0.07,-0.43 -0.28,-0.48 -0.21,-0.06 -0.43,0.07 -0.48,0.28 -0.06,0.21 0.07,0.43 0.28,0.48zm-1.62 4.06c0.21,0.06 0.43,-0.07 0.48,-0.28 0.06,-0.21 -0.07,-0.43 -0.28,-0.48 -0.21,-0.06 -0.43,0.07 -0.48,0.28 -0.06,0.21 0.07,0.43 0.28,0.48zm0.44 -1.67c0.21,0.06 0.43,-0.07 0.48,-0.28 0.06,-0.21 -0.07,-0.43 -0.28,-0.48 -0.21,-0.06 -0.43,0.07 -0.48,0.28 -0.06,0.21 0.07,0.43 0.28,0.48zm0.44 -1.67c0.21,0.06 0.43,-0.07 0.48,-0.28 0.06,-0.21 -0.07,-0.43 -0.28,-0.48 -0.21,-0.06 -0.43,0.07 -0.48,0.28 -0.06,0.21 0.07,0.43 0.28,0.48zm0.44 -1.67c0.21,0.06 0.43,-0.07 0.48,-0.28 0.06,-0.21 -0.07,-0.43 -0.28,-0.48 -0.21,-0.06 -0.43,0.07 -0.48,0.28 -0.06,0.21 0.07,0.43 0.28,0.48zm-2.01 5.69c0.21,0.06 0.43,-0.07 0.48,-0.28 0.06,-0.21 -0.07,-0.43 -0.28,-0.48 -0.21,-0.06 -0.43,0.07 -0.48,0.28 -0.06,0.21 0.07,0.43 0.28,0.48zm0.44 -1.67c0.21,0.06 0.43,-0.07 0.48,-0.28 0.06,-0.21 -0.07,-0.43 -0.28,-0.48 -0.21,-0.06 -0.43,0.07 -0.48,0.28 -0.06,0.21 0.07,0.43 0.28,0.48zm0.44 -1.67c0.21,0.06 0.43,-0.07 0.48,-0.28 0.06,-0.21 -0.07,-0.43 -0.28,-0.48 -0.21,-0.06 -0.43,0.07 -0.48,0.28 -0.06,0.21 0.07,0.43 0.28,0.48zm0.44 -1.67c0.21,0.06 0.43,-0.07 0.48,-0.28 0.06,-0.21 -0.07,-0.43 -0.28,-0.48 -0.21,-0.06 -0.43,0.07 -0.48,0.28 -0.06,0.21 0.07,0.43 0.28,0.48zm-1.62 4.06c0.21,0.06 0.43,-0.07 0.48,-0.28 0.06,-0.21 -0.07,-0.43 -0.28,-0.48 -0.21,-0.06 -0.43,0.07 -0.48,0.28 -0.06,0.21 0.07,0.43 0.28,0.48zm0.44 -1.67c0.21,0.06 0.43,-0.07 0.48,-0.28 0.06,-0.21 -0.07,-0.43 -0.28,-0.48 -0.21,-0.06 -0.43,0.07 -0.48,0.28 -0.06,0.21 0.07,0.43 0.28,0.48zm0.44 -1.67c0.21,0.06 0.43,-0.07 0.48,-0.28 0.06,-0.21 -0.07,-0.43 -0.28,-0.48 -0.21,-0.06 -0.43,0.07 -0.48,0.28 -0.06,0.21 0.07,0.43 0.28,0.48zm0.44 -1.67c0.21,0.06 0.43,-0.07 0.48,-0.28 0.06,-0.21 -0.07,-0.43 -0.28,-0.48 -0.21,-0.06 -0.43,0.07 -0.48,0.28 -0.06,0.21 0.07,0.43 0.28,0.48zm-2.01 5.69c0.21,0.06 0.43,-0.07 0.48,-0.28 0.06,-0.21 -0.07,-0.43 -0.28,-0.48 -0.21,-0.06 -0.43,0.07 -0.48,0.28 -0.06,0.21 0.07,0.43 0.28,0.48zm0.44 -1.67c0.21,0.06 0.43,-0.07 0.48,-0.28 0.06,-0.21 -0.07,-0.43 -0.28,-0.48 -0.21,-0.06 -0.43,0.07 -0.48,0.28 -0.06,0.21 0.07,0.43 0.28,0.48zm0.44 -1.67c0.21,0.06 0.43,-0.07 0.48,-0.28 0.06,-0.21 -0.07,-0.43 -0.28,-0.48 -0.21,-0.06 -0.43,0.07 -0.48,0.28 -0.06,0.21 0.07,0.43 0.28,0.48zm0.44 -1.67c0.21,0.06 0.43,-0.07 0.48,-0.28 0.06,-0.21 -0.07,-0.43 -0.28,-0.48 -0.21,-0.06 -0.43,0.07 -0.48,0.28 -0.06,0.21 0.07,0.43 0.28,0.48zm-1.62 4.06c0.21,0.06 0.43,-0.07 0.48,-0.28 0.06,-0.21 -0.07,-0.43 -0.28,-0.48 -0.21,-0.06 -0.43,0.07 -0.48,0.28 -0.06,0.21 0.07,0.43 0.28,0.48zm0.44 -1.67c0.21,0.06 0.43,-0.07 0.48,-0.28 0.06,-0.21 -0.07,-0.43 -0.28,-0.48 -0.21,-0.06 -0.43,0.07 -0.48,0.28 -0.06,0.21 0.07,0.43 0.28,0.48zm0.44 -1.67c0.21,0.06 0.43,-0.07 0.48,-0.28 0.06,-0.21 -0.07,-0.43 -0.28,-0.48 -0.21,-0.06 -0.43,0.07 -0.48,0.28 -0.06,0.21 0.07,0.43 0.28,0.48zm0.44 -1.67c0.21,0.06 0.43,-0.07 0.48,-0.28 0.06,-0.21 -0.07,-0.43 -0.28,-0.48 -0.21,-0.06 -0.43,0.07 -0.48,0.28 -0.06,0.21 0.07,0.43 0.28,0.48zm-2.01 5.69c0.21,0.06 0.43,-0.07 0.48,-0.28 0.06,-0.21 -0.07,-0.43 -0.28,-0.48 -0.21,-0.06 -0.43,0.07 -0.48,0.28 -0.06,0.21 0.07,0.43 0.28,0.48zm0.44 -1.67c0.21,0.06 0.43,-0.07 0.48,-0.28 0.06,-0.21 -0.07,-0.43 -0.28,-0.48 -0.21,-0.06 -0.43,0.07 -0.48,0.28 -0.06,0.21 0.07,0.43 0.28,0.48zm0.44 -1.67c0.21,0.06 0.43,-0.07 0.48,-0.28 0.06,-0.21 -0.07,-0.43 -0.28,-0.48 -0.21,-0.06 -0.43,0.07 -0.48,0.28 -0.06,0.21 0.07,0.43 0.28,0.48zm0.44 -1.67c0.21,0.06 0.43,-0.07 0.48,-0.28 0.06,-0.21 -0.07,-0.43 -0.28,-0.48 -0.21,-0.06 -0.43,0.07 -0.48,0.28 -0.06,0.21 0.07,0.43 0.28,0.48zm-1.62 4.06c0.21,0.06 0.43,-0.07 0.48,-0.28 0.06,-0.21 -0.07,-0.43 -0.28,-0.48 -0.21,-0.06 -0.43,0.07 -0.48,0.28 -0.06,0.21 0.07,0.43 0.28,0.48zm0.44 -1.67c0.21,0.06 0.43,-0.07 0.48,-0.28 0.06,-0.21 -0.07,-0.43 -0.28,-0.48 -0.21,-0.06 -0.43,0.07 -0.48,0.28 -0.06,0.21 0.07,0.43 0.28,0.48zm0.44 -1.67c0.21,0.06 0.43,-0.07 0.48,-0.28 0.06,-0.21 -0.07,-0.43 -0.28,-0.48 -0.21,-0.06 -0.43,0.07 -0.48,0.28 -0.06,0.21 0.07,0.43 0.28,0.48zm0.44 -1.67c0.21,0.06 0.43,-0.07 0.48,-0.28 0.06,-0.21 -0.07,-0.43 -0.28,-0.48 -0.21,-0.06 -0.43,0.07 -0.48,0.28 -0.06,0.21 0.07,0.43 0.28,0.48zm-2.01 5.69c0.21,0.06 0.43,-0.07 0.48,-0.28 0.06,-0.21 -0.07,-0.43 -0.28,-0.48 -0.21,-0.06 -0.43,0.07 -0.48,0.28 -0.06,0.21 0.07,0.43 0.28,0.48zm0.44 -1.67c0.21,0.06 0.43,-0.07 0.48,-0.28 0.06,-0.21 -0.07,-0.43 -0.28,-0.48 -0.21,-0.06 -0.43,0.07 -0.48,0.28 -0.06,0.21 0.07,0.43 0.28,0.48zm0.44 -1.67c0.21,0.06 0.43,-0.07 0.48,-0.28 0.06,-0.21 -0.07,-0.43 -0.28,-0.48 -0.21,-0.06 -0.43,0.07 -0.48,0.28 -0.06,0.21 0.07,0.43 0.28,0.48zm0.44 -1.67c0.21,0.06 0.43,-0.07 0.48,-0.28 0.06,-0.21 -0.07,-0.43 -0.28,-0.48 -0.21,-0.06 -0.43,0.07 -0.48,0.28 -0.06,0.21 0.07,0.43 0.28,0.48zm-1.62 4.06c0.21,0.06 0.43,-0.07 0.48,-0.28 0.06,-0.21 -0.07,-0.43 -0.28,-0.48 -0.21,-0.06 -0.43,0.07 -0.48,0.28 -0.06,0.21 0.07,0.43 0.28,0.48zm0.44 -1.67c0.21,0.06 0.43,-0.07 0.48,-0.28 0.06,-0.21 -0.07,-0.43 -0.28,-0.48 -0.21,-0.06 -0.43,0.07 -0.48,0.28 -0.06,0.21 0.07,0.43 0.28,0.48zm0.44 -1.67c0.21,0.06 0.43,-0.07 0.48,-0.28 0.06,-0.21 -0.07,-0.43 -0.28,-0.48 -0.21,-0.06 -0.43,0.07 -0.48,0.28 -0.06,0.21 0.07,0.43 0.28,0.48zm0.44 -1.67c0.21,0.06 0.43,-0.07 0.48,-0.28 0.06,-0.21 -0.07,-0.43 -0.28,-0.48 -0.21,-0.06 -0.43,0.07 -0.48,0.28 -0.06,0.21 0.07,0.43 0.28,0.48zm-2.01 5.69c0.21,0.06 0.43,-0.07 0.48,-0.28 0.06,-0.21 -0.07,-0.43 -0.28,-0.48 -0.21,-0.06 -0.43,0.07 -0.48,0.28 -0.06,0.21 0.07,0.43 0.28,0.48zm0.44 -1.67c0.21,0.06 0.43,-0.07 0.48,-0.28 0.06,-0.21 -0.07,-0.43 -0.28,-0.48 -0.21,-0.06 -0.43,0.07 -0.48,0.28 -0.06,0.21 0.07,0.43 0.28,0.48zm0.44 -1.67c0.21,0.06 0.43,-0.07 0.48,-0.28 0.06,-0.21 -0.07,-0.43 -0.28,-0.48 -0.21,-0.06 -0.43,0.07 -0.48,0.28 -0.06,0.21 0.07,0.43 0.28,0.48zm0.44 -1.67c0.21,0.06 0.43,-0.07 0.48,-0.28 0.06,-0.21 -0.07,-0.43 -0.28,-0.48 -0.21,-0.06 -0.43,0.07 -0.48,0.28 -0.06,0.21 0.07,0.43 0.28,0.48zm-1.62 4.06c0.21,0.06 0.43,-0.07 0.48,-0.28 0.06,-0.21 -0.07,-0.43 -0.28,-0.48 -0.21,-0.06 -0.43,0.07 -0.48,0.28 -0.06,0.21 0.07,0.43 0.28,0.48zm0.44 -1.67c0.21,0.06 0.43,-0.07 0.48,-0.28 0.06,-0.21 -0.07,-0.43 -0.28,-0.48 -0.21,-0.06 -0.43,0.07 -0.48,0.28 -0.06,0.21 0.07,0.43 0.28,0.48zm0.44 -1.67c0.21,0.06 0.43,-0.07 0.48,-0.28 0.06,-0.21 -0.07,-0.43 -0.28,-0.48 -0.21,-0.06 -0.43,0.07 -0.48,0.28 -0.06,0.21 0.07,0.43 0.28,0.48zm0.44 -1.67c0.21,0.06 0.43,-0.07 0.48,-0.28 0.06,-0.21 -0.07,-0.43 -0.28,-0.48 -0.21,-0.06 -0.43,0.07 -0.48,0.28 -0.06,0.21 0.07,0.43 0.28,0.48zm-2.01 5.69c0.21,0.06 0.43,-0.07 0.48,-0.28 0.06,-0.21 -0.07,-0.43 -0.28,-0.48 -0.21,-0.06 -0.43,0.07 -0.48,0.28 -0.06,0.21 0.07,0.43 0.28,0.48zm0.44 -1.67c0.21,0.06 0.43,-0.07 0.48,-0.28 0.06,-0.21 -0.07,-0.43 -0.28,-0.48 -0.21,-0.06 -0.43,0.07 -0.48,0.28 -0.06,0.21 0.07,0.43 0.28,0.48zm0.44 -1.67c0.21,0.06 0.43,-0.07 0.48,-0.28 0.06,-0.21 -0.07,-0.43 -0.28,-0.48 -0.21,-0.06 -0.43,0.07 -0.48,0.28 -0.06,0.21 0.07,0.43 0.28,0.48zm0.44 -1.67c0.21,0.06 0.43,-0.07 0.48,-0.28 0.06,-0.21 -0.07,-0.43 -0.28,-0.48 -0.21,-0.06 -0.43,0.07 -0.48,0.28 -0.06,0.21 0.07,0.43 0.28,0.48zm-1.62 4.06c0.21,0.06 0.43,-0.07 0.48,-0.28 0.06,-0.21 -0.07,-0.43 -0.28,-0.48 -0.21,-0.06 -0.43,0.07 -0.48,0.28 -0.06,0.21 0.07,0.43 0.28,0.48zm0.44 -1.67c0.21,0.06 0.43,-0.07 0.48,-0.28 0.06,-0.21 -0.07,-0.43 -0.28,-0.48 -0.21,-0.06 -0.43,0.07 -0.48,0.28 -0.06,0.21 0.07,0.43 0.28,0.48zm0.44 -1.67c0.21,0.06 0.43,-0.07 0.48,-0.28 0.06,-0.21 -0.07,-0.43 -0.28,-0.48 -0.21,-0.06 -0.43,0.07 -0.48,0.28 -0.06,0.21 0.07,0.43 0.28,0.48zm0.44 -1.67c0.21,0.06 0.43,-0.07 0.48,-0.28 0.06,-0.21 -0.07,-0.43 -0.28,-0.48 -0.21,-0.06 -0.43,0.07 -0.48,0.28 -0.06,0.21 0.07,0.43 0.28,0.48zm-2.01 5.69c0.21,0.06 0.43,-0.07 0.48,-0.28 0.06,-0.21 -0.07,-0.43 -0.28,-0.48 -0.21,-0.06 -0.43,0.07 -0.48,0.28 -0.06,0.21 0.07,0.43 0.28,0.48zm0.44 -1.67c0.21,0.06 0.43,-0.07 0.48,-0.28 0.06,-0.21 -0.07,-0.43 -0.28,-0.48 -0.21,-0.06 -0.43,0.07 -0.48,0.28 -0.06,0.21 0.07,0.43 0.28,0.48zm0.44 -1.67c0.21,0.06 0.43,-0.07 0.48,-0.28 0.06,-0.21 -0.07,-0.43 -0.28,-0.48 -0.21,-0.06 -0.43,0.07 -0.48,0.28 -0.06,0.21 0.07,0.43 0.28,0.48zm0.44 -1.67c0.21,0.06 0.43,-0.07 0.48,-0.28 0.06,-0.21 -0.07,-0.43 -0.28,-0.48 -0.21,-0.06 -0.43,0.07 -0.48,0.28 -0.06,0.21 0.07,0.43 0.28,0.48zm-1.62 4.06c0.21,0.06 0.43,-0.07 0.48,-0.28 0.06,-0.21 -0.07,-0.43 -0.28,-0.48 -0.21,-0.06 -0.43,0.07 -0.48,0.28 -0.06,0.21 0.07,0.43 0.28,0.48zm0.44 -1.67c0.21,0.06 0.43,-0.07 0.48,-0.28 0.06,-0.21 -0.07,-0.43 -0.28,-0.48 -0.21,-0.06 -0.43,0.07 -0.48,0.28 -0.06,0.21 0.07,0.43 0.28,0.48zm0.44 -1.67c0.21,0.06 0.43,-0.07 0.48,-0.28 0.06,-0.21 -0.07,-0.43 -0.28,-0.48 -0.21,-0.06 -0.43,0.07 -0.48,0.28 -0.06,0.21 0.07,0.43 0.28,0.48zm0.44 -1.67c0.21,0.06 0.43,-0.07 0.48,-0.28 0.06,-0.21 -0.07,-0.43 -0.28,-0.48 -0.21,-0.06 -0.43,0.07 -0.48,0.28 -0.06,0.21 0.07,0.43 0.28,0.48zm-2.01 5.69c0.21,0.06 0.43,-0.07 0.48,-0.28 0.06,-0.21 -0.07,-0.43 -0.28,-0.48 -0.21,-0.06 -0.43,0.07 -0.48,0.28 -0.06,0.21 0.07,0.43 0.28,0.48zm0.44 -1.67c0.21,0.06 0.43,-0.07 0.48,-0.28 0.06,-0.21 -0.07,-0.43 -0.28,-0.48 -0.21,-0.06 -0.43,0.07 -0.48,0.28 -0.06,0.21 0.07,0.43 0.28,0.48zm0.44 -1.67c0.21,0.06 0.43,-0.07 0.48,-0.28 0.06,-0.21 -0.07,-0.43 -0.28,-0.48 -0.21,-0.06 -0.43,0.07 -0.48,0.28 -0.06,0.21 0.07,0.43 0.28,0.48zm0.44 -1.67c0.21,0.06 0.43,-0.07 0.48,-0.28 0.06,-0.21 -0.07,-0.43 -0.28,-0.48 -0.21,-0.06 -0.43,0.07 -0.48,0.28 -0.06,0.21 0.07,0.43 0.28,0.48zm-1.62 4.06c0.21,0.06 0.43,-0.07 0.48,-0.28 0.06,-0.21 -0.07,-0.43 -0.28,-0.48 -0.21,-0.06 -0.43,0.07 -0.48,0.28 -0.06,0.21 0.07,0.43 0.28,0.48zm0.44 -1.67c0.21,0.06 0.43,-0.07 0.48,-0.28 0.06,-0.21 -0.07,-0.43 -0.28,-0.48 -0.21,-0.06 -0.43,0.07 -0.48,0.28 -0.06,0.21 0.07,0.43 0.28,0.48zm0.44 -1.67c0.21,0.06 0.43,-0.07 0.48,-0.28 0.06,-0.21 -0.07,-0.43 -0.28,-0.48 -0.21,-0.06 -0.43,0.07 -0.48,0.28 -0.06,0.21 0.07,0.43 0.28,0.48zm0.44 -1.67c0.21,0.06 0.43,-0.07 0.48,-0.28 0.06,-0.21 -0.07,-0.43 -0.28,-0.48 -0.21,-0.06 -0.43,0.07 -0.48,0.28 -0.06,0.21 0.07,0.43 0.28,0.48zm-1.57 4.02c0.21,0.06 0.43,-0.07 0.48,-0.28 0.06,-0.21 -0.07,-0.43 -0.28,-0.48 -0.21,-0.06 -0.43,0.07 -0.48,0.28 -0.06,0.21 0.07,0.43 0.28,0.48zm0.44 -1.67c0.21,0.06 0.43,-0.07 0.48,-0.28 0.06,-0.21 -0.07,-0.43 -0.28,-0.48 -0.21,-0.06 -0.43,0.07 -0.48,0.28 -0.06,0.21 0.07,0.43 0.28,0.48zm0.44 -1.67c0.21,0.06 0.43,-0.07 0.48,-0.28 0.06,-0.21 -0.07,-0.43 -0.28,-0.48 -0.21,-0.06 -0.43,0.07 -0.48,0.28 -0.06,0.21 0.07,0.43 0.28,0.48zm-1.18 2.39c0.21,0.06 0.43,-0.07 0.48,-0.28 0.06,-0.21 -0.07,-0.43 -0.28,-0.48 -0.21,-0.06 -0.43,0.07 -0.48,0.28 -0.06,0.21 0.07,0.43 0.28,0.48zm0.44 -1.67c0.21,0.06 0.43,-0.07 0.48,-0.28 0.06,-0.21 -0.07,-0.43 -0.28,-0.48 -0.21,-0.06 -0.43,0.07 -0.48,0.28 -0.06,0.21 0.07,0.43 0.28,0.48zm0.44 -1.67c0.21,0.06 0.43,-0.07 0.48,-0.28 0.06,-0.21 -0.07,-0.43 -0.28,-0.48 -0.21,-0.06 -0.43,0.07 -0.48,0.28 -0.06,0.21 0.07,0.43 0.28,0.48zm-2.3 5.26c-0.01,0.11 0.01,0.21 0.08,0.29l0 0 0.11 0.41 -10.74 -2.79 0 -0 0 0 0.03 -0.03 0.8 -0.44c-0.01,0.18 0.11,0.35 0.29,0.4 0.21,0.06 0.43,-0.07 0.48,-0.28 0.05,-0.18 -0.03,-0.36 -0.19,-0.44l0.18 -0.1c0.05,0.06 0.12,0.11 0.21,0.13 0.21,0.06 0.43,-0.07 0.48,-0.28 0.02,-0.08 0.02,-0.15 -0.01,-0.23l-0.27 0.15 1.27 -0.7c-0.02,0.03 -0.04,0.07 -0.05,0.11 -0.06,0.21 0.07,0.43 0.28,0.48 0.21,0.06 0.43,-0.07 0.48,-0.28 0.06,-0.21 -0.07,-0.43 -0.28,-0.48 -0.03,-0.01 -0.06,-0.01 -0.1,-0.01l-0.11 0.06 0.41 -0.22c0.04,0.12 0.14,0.22 0.27,0.25 0.21,0.06 0.43,-0.07 0.48,-0.28 0.03,-0.12 0,-0.25 -0.07,-0.35l-0.52 0.29 4.69 -2.57 0 0 0 0 -0.04 0.02c-0.02,0.03 -0.03,0.06 -0.04,0.1 -0.05,0.2 0.05,0.4 0.24,0.47l0 0 0.1 0.38c-0.02,0.03 -0.03,0.07 -0.04,0.1 -0.05,0.18 0.03,0.36 0.18,0.44l0.11 0.42 0 0c-0.02,0.04 -0.04,0.08 -0.05,0.12 -0.05,0.18 0.04,0.37 0.2,0.45l0 0 0.11 0.43 -0 0c-0.01,0.02 -0.02,0.04 -0.02,0.06 -0.04,0.16 0.02,0.33 0.15,0.42l0 0 0.12 0.47 0 0c-0.01,0.03 -0.02,0.05 -0.03,0.08 -0.04,0.17 0.03,0.34 0.17,0.43l0 0 0.13 0.5c-0,0.01 -0,0.01 -0,0.02 -0.04,0.14 0.01,0.29 0.11,0.39l0 0 0.14 0.55c-0.01,0.01 -0.01,0.03 -0.01,0.04 -0.04,0.15 0.01,0.31 0.13,0.41l0 0 0.15 0.59 0 0zm1.18 -2.9c0.21,0.06 0.43,-0.07 0.48,-0.28 0.06,-0.21 -0.07,-0.43 -0.28,-0.48 -0.21,-0.06 -0.43,0.07 -0.48,0.28 -0.06,0.21 0.07,0.43 0.28,0.48zm0.44 -1.67c0.21,0.06 0.43,-0.07 0.48,-0.28 0.06,-0.21 -0.07,-0.43 -0.28,-0.48 -0.21,-0.06 -0.43,0.07 -0.48,0.28 -0.06,0.21 0.07,0.43 0.28,0.48zm-1.58 5.23c-0.04,-0.13 -0.14,-0.23 -0.28,-0.27 -0.81,-0.22 -0.14,0.16 0.28,0.27zm0.85 -4.51c0.21,0.06 0.43,-0.07 0.48,-0.28 0.06,-0.21 -0.07,-0.43 -0.28,-0.48 -0.21,-0.06 -0.43,0.07 -0.48,0.28 -0.06,0.21 0.07,0.43 0.28,0.48zm0.44 -1.67c0.21,0.06 0.43,-0.07 0.48,-0.28 0.06,-0.21 -0.07,-0.43 -0.28,-0.48 -0.21,-0.06 -0.43,0.07 -0.48,0.28 -0.06,0.21 0.07,0.43 0.28,0.48zm-2.01 5.69c0.21,0.06 0.43,-0.07 0.48,-0.28 0.06,-0.21 -0.07,-0.43 -0.28,-0.48 -0.21,-0.06 -0.43,0.07 -0.48,0.28 -0.06,0.21 0.07,0.43 0.28,0.48zm1.33 -5c0.21,0.06 0.43,-0.07 0.48,-0.28 0.06,-0.21 -0.07,-0.43 -0.28,-0.48 -0.21,-0.06 -0.43,0.07 -0.48,0.28 -0.06,0.21 0.07,0.43 0.28,0.48zm-1.86 4.96c-0.14,-0.04 -0.29,0.01 -0.38,0.11 0.37,0.1 1.21,0.11 0.38,-0.11zm0.24 -0.9c0.21,0.06 0.43,-0.07 0.48,-0.28 0.06,-0.21 -0.07,-0.43 -0.28,-0.48 -0.21,-0.06 -0.43,0.07 -0.48,0.28 -0.06,0.21 0.07,0.43 0.28,0.48zm1.33 -5c0.21,0.06 0.43,-0.07 0.48,-0.28 0.06,-0.21 -0.07,-0.43 -0.28,-0.48 -0.21,-0.06 -0.43,0.07 -0.48,0.28 -0.06,0.21 0.07,0.43 0.28,0.48zm-2.01 5.69c0.21,0.06 0.43,-0.07 0.48,-0.28 0.06,-0.21 -0.07,-0.43 -0.28,-0.48 -0.21,-0.06 -0.43,0.07 -0.48,0.28 -0.06,0.21 0.07,0.43 0.28,0.48zm0.44 -1.67c0.21,0.06 0.43,-0.07 0.48,-0.28 0.06,-0.21 -0.07,-0.43 -0.28,-0.48 -0.21,-0.06 -0.43,0.07 -0.48,0.28 -0.06,0.21 0.07,0.43 0.28,0.48zm-0.69 1.91c-0.03,-0.13 -0.14,-0.25 -0.28,-0.28 -0.15,-0.04 -0.29,0.01 -0.39,0.11l0.67 0.17zm-0.04 -1.19c0.21,0.06 0.43,-0.07 0.48,-0.28 0.06,-0.21 -0.07,-0.43 -0.28,-0.48 -0.21,-0.06 -0.43,0.07 -0.48,0.28 -0.06,0.21 0.07,0.43 0.28,0.48zm0.44 -1.67c0.21,0.06 0.43,-0.07 0.48,-0.28 0.06,-0.21 -0.07,-0.43 -0.28,-0.48 -0.21,-0.06 -0.43,0.07 -0.48,0.28 -0.06,0.21 0.07,0.43 0.28,0.48zm-1.12 2.36c0.21,0.06 0.43,-0.07 0.48,-0.28 0.06,-0.21 -0.07,-0.43 -0.28,-0.48 -0.21,-0.06 -0.43,0.07 -0.48,0.28 -0.06,0.21 0.07,0.43 0.28,0.48zm0.44 -1.67c0.21,0.06 0.43,-0.07 0.48,-0.28 0.06,-0.21 -0.07,-0.43 -0.28,-0.48 -0.21,-0.06 -0.43,0.07 -0.48,0.28 -0.06,0.21 0.07,0.43 0.28,0.48zm0.44 -1.67c0.21,0.06 0.43,-0.07 0.48,-0.28 0.06,-0.21 -0.07,-0.43 -0.28,-0.48 -0.21,-0.06 -0.43,0.07 -0.48,0.28 -0.06,0.21 0.07,0.43 0.28,0.48zm-1.14 3.58c-0.03,-0.14 -0.14,-0.25 -0.28,-0.29 -0.15,-0.04 -0.3,0.01 -0.39,0.12l0.68 0.18zm-0.04 -1.2c0.21,0.06 0.43,-0.07 0.48,-0.28 0.06,-0.21 -0.07,-0.43 -0.28,-0.48 -0.21,-0.06 -0.43,0.07 -0.48,0.28 -0.06,0.21 0.07,0.43 0.28,0.48zm0.44 -1.67c0.21,0.06 0.43,-0.07 0.48,-0.28 0.06,-0.21 -0.07,-0.43 -0.28,-0.48 -0.21,-0.06 -0.43,0.07 -0.48,0.28 -0.06,0.21 0.07,0.43 0.28,0.48zm0.44 -1.67c0.21,0.06 0.43,-0.07 0.48,-0.28 0.06,-0.21 -0.07,-0.43 -0.28,-0.48 -0.21,-0.06 -0.43,0.07 -0.48,0.28 -0.06,0.21 0.07,0.43 0.28,0.48zm-1.57 4.02c0.21,0.06 0.43,-0.07 0.48,-0.28 0.06,-0.21 -0.07,-0.43 -0.28,-0.48 -0.21,-0.06 -0.43,0.07 -0.48,0.28 -0.06,0.21 0.07,0.43 0.28,0.48zm0.44 -1.67c0.21,0.06 0.43,-0.07 0.48,-0.28 0.06,-0.21 -0.07,-0.43 -0.28,-0.48 -0.21,-0.06 -0.43,0.07 -0.48,0.28 -0.06,0.21 0.07,0.43 0.28,0.48zm0.44 -1.67c0.21,0.06 0.43,-0.07 0.48,-0.28 0.06,-0.21 -0.07,-0.43 -0.28,-0.48 -0.21,-0.06 -0.43,0.07 -0.48,0.28 -0.06,0.21 0.07,0.43 0.28,0.48zm0.44 -1.67c0.21,0.06 0.43,-0.07 0.48,-0.28 0.06,-0.21 -0.07,-0.43 -0.28,-0.48 -0.21,-0.06 -0.43,0.07 -0.48,0.28 -0.06,0.21 0.07,0.43 0.28,0.48zm-1.58 5.26c-0.03,-0.14 -0.14,-0.26 -0.28,-0.3 -0.15,-0.04 -0.3,0.01 -0.4,0.12l0.68 0.18zm-0.04 -1.2c0.21,0.06 0.43,-0.07 0.48,-0.28 0.06,-0.21 -0.07,-0.43 -0.28,-0.48 -0.21,-0.06 -0.43,0.07 -0.48,0.28 -0.06,0.21 0.07,0.43 0.28,0.48zm0.44 -1.67c0.21,0.06 0.43,-0.07 0.48,-0.28 0.06,-0.21 -0.07,-0.43 -0.28,-0.48 -0.21,-0.06 -0.43,0.07 -0.48,0.28 -0.06,0.21 0.07,0.43 0.28,0.48zm0.44 -1.67c0.21,0.06 0.43,-0.07 0.48,-0.28 0.06,-0.21 -0.07,-0.43 -0.28,-0.48 -0.21,-0.06 -0.43,0.07 -0.48,0.28 -0.06,0.21 0.07,0.43 0.28,0.48zm0.56 -1.65c0.12,-0 0.24,-0.07 0.31,-0.17l-0.31 0.17zm-2.13 5.68c0.21,0.06 0.43,-0.07 0.48,-0.28 0.06,-0.21 -0.07,-0.43 -0.28,-0.48 -0.21,-0.06 -0.43,0.07 -0.48,0.28 -0.06,0.21 0.07,0.43 0.28,0.48zm0.44 -1.67c0.21,0.06 0.43,-0.07 0.48,-0.28 0.06,-0.21 -0.07,-0.43 -0.28,-0.48 -0.21,-0.06 -0.43,0.07 -0.48,0.28 -0.06,0.21 0.07,0.43 0.28,0.48zm0.44 -1.67c0.21,0.06 0.43,-0.07 0.48,-0.28 0.06,-0.21 -0.07,-0.43 -0.28,-0.48 -0.21,-0.06 -0.43,0.07 -0.48,0.28 -0.06,0.21 0.07,0.43 0.28,0.48zm0.44 -1.67c0.21,0.06 0.43,-0.07 0.48,-0.28 0.02,-0.08 0.02,-0.15 -0.01,-0.22l-0.68 0.37c0.05,0.06 0.12,0.11 0.2,0.13zm-1.58 5.26c-0.03,-0.14 -0.14,-0.26 -0.29,-0.3 -0.15,-0.04 -0.31,0.01 -0.4,0.13l0.69 0.18zm-0.05 -1.21c0.21,0.06 0.43,-0.07 0.48,-0.28 0.06,-0.21 -0.07,-0.43 -0.28,-0.48 -0.21,-0.06 -0.43,0.07 -0.48,0.28 -0.06,0.21 0.07,0.43 0.28,0.48zm0.44 -1.67c0.21,0.06 0.43,-0.07 0.48,-0.28 0.06,-0.21 -0.07,-0.43 -0.28,-0.48 -0.21,-0.06 -0.43,0.07 -0.48,0.28 -0.06,0.21 0.07,0.43 0.28,0.48zm0.44 -1.67c0.21,0.06 0.43,-0.07 0.48,-0.28 0.05,-0.18 -0.03,-0.36 -0.18,-0.44l-0.59 0.33c-0.01,0.18 0.11,0.35 0.29,0.4zm-1.57 4.02c0.21,0.06 0.43,-0.07 0.48,-0.28 0.06,-0.21 -0.07,-0.43 -0.28,-0.48 -0.21,-0.06 -0.43,0.07 -0.48,0.28 -0.06,0.21 0.07,0.43 0.28,0.48zm0.44 -1.67c0.21,0.06 0.43,-0.07 0.48,-0.28 0.06,-0.21 -0.07,-0.43 -0.28,-0.48 -0.21,-0.06 -0.43,0.07 -0.48,0.28 -0.06,0.21 0.07,0.43 0.28,0.48zm0.44 -1.67c0.21,0.06 0.43,-0.07 0.48,-0.28 0.06,-0.21 -0.07,-0.43 -0.28,-0.48 -0.21,-0.06 -0.43,0.07 -0.48,0.28 -0.06,0.21 0.07,0.43 0.28,0.48zm-1.13 3.6c-0.03,-0.15 -0.13,-0.27 -0.29,-0.31 -0.15,-0.04 -0.31,0.02 -0.41,0.13l0.69 0.18zm-0.05 -1.22c0.21,0.06 0.43,-0.07 0.48,-0.28 0.06,-0.21 -0.07,-0.43 -0.28,-0.48 -0.21,-0.06 -0.43,0.07 -0.48,0.28 -0.06,0.21 0.07,0.43 0.28,0.48zm0.44 -1.67c0.21,0.06 0.43,-0.07 0.48,-0.28 0.06,-0.21 -0.07,-0.43 -0.28,-0.48 -0.21,-0.06 -0.43,0.07 -0.48,0.28 -0.06,0.21 0.07,0.43 0.28,0.48zm-1.12 2.36c0.21,0.06 0.43,-0.07 0.48,-0.28 0.06,-0.21 -0.07,-0.43 -0.28,-0.48 -0.21,-0.06 -0.43,0.07 -0.48,0.28 -0.06,0.21 0.07,0.43 0.28,0.48zm0.44 -1.67c0.21,0.06 0.43,-0.07 0.48,-0.28 0.06,-0.21 -0.07,-0.43 -0.28,-0.48 -0.21,-0.06 -0.43,0.07 -0.48,0.28 -0.06,0.21 0.07,0.43 0.28,0.48zm0.44 -1.67c0.21,0.06 0.43,-0.07 0.48,-0.28 0.01,-0.03 0.01,-0.05 0.01,-0.08l-0.58 0.32c0.03,0.01 0.06,0.03 0.09,0.04zm-1.13 3.61c-0.02,-0.15 -0.13,-0.28 -0.29,-0.32 -0.16,-0.04 -0.32,0.02 -0.41,0.14l0.7 0.18zm-0.05 -1.22c0.21,0.06 0.43,-0.07 0.48,-0.28 0.06,-0.21 -0.07,-0.43 -0.28,-0.48 -0.21,-0.06 -0.43,0.07 -0.48,0.28 -0.06,0.21 0.07,0.43 0.28,0.48zm-0.68 0.69c0.21,0.06 0.43,-0.07 0.48,-0.28 0.06,-0.21 -0.07,-0.43 -0.28,-0.48 -0.21,-0.06 -0.43,0.07 -0.48,0.28 -0.06,0.21 0.07,0.43 0.28,0.48zm-0.24 0.28c-0.02,-0.15 -0.13,-0.28 -0.29,-0.32 -0.16,-0.04 -0.32,0.02 -0.41,0.14l0.7 0.18zm-0.05 -1.23c0.21,0.06 0.43,-0.07 0.48,-0.28 0.06,-0.21 -0.07,-0.43 -0.28,-0.48 -0.21,-0.06 -0.43,0.07 -0.48,0.28 -0.06,0.21 0.07,0.43 0.28,0.48zm-0.68 0.69c0.21,0.06 0.43,-0.07 0.48,-0.28 0.06,-0.21 -0.07,-0.43 -0.28,-0.48 -0.21,-0.06 -0.43,0.07 -0.48,0.28 -0.06,0.21 0.07,0.43 0.28,0.48zm0.55 -1.65c0.13,-0 0.25,-0.07 0.32,-0.18l-0.32 0.18zm-0.79 1.94c-0.02,-0.15 -0.13,-0.29 -0.29,-0.33 -0.16,-0.04 -0.33,0.02 -0.42,0.15l0.71 0.18zm-0.97 -0.25c-0.02,-0.16 -0.13,-0.29 -0.29,-0.34 -0.16,-0.04 -0.33,0.02 -0.42,0.15l0.71 0.19zm18.61 5.77l-4.62 8.47 -0.14 0.14 -2.73 -10.56 7.49 1.95zm-2.35 6.2l3.36 -6.16 6.39 -3.59 -9.75 9.75zm-13.23 -14.36l0.16 -0.09 -0.16 0.09zm-2.9 3.36l9.98 2.59 2.58 9.96 -12.55 -12.55z"/>
  </g>
 </g>
</svg>
