<?xml version="1.0" encoding="UTF-8"?>
<!DOCTYPE svg PUBLIC "-//W3C//DTD SVG 1.1//EN" "http://www.w3.org/Graphics/SVG/1.1/DTD/svg11.dtd">
<!-- Creator: CorelDRAW -->
<svg xmlns="http://www.w3.org/2000/svg" xml:space="preserve" width="10.1134mm" height="10.1204mm" version="1.1" style="shape-rendering:geometricPrecision; text-rendering:geometricPrecision; image-rendering:optimizeQuality; fill-rule:evenodd; clip-rule:evenodd"
viewBox="0 0 83.51 83.57"
 xmlns:xlink="http://www.w3.org/1999/xlink"
 xmlns:xodm="http://www.corel.com/coreldraw/odm/2003">
 <defs>
  <style type="text/css">
   <![CDATA[
    .fil0 {fill:#234433}
   ]]>
  </style>
 </defs>
 <g id="Camada_x0020_2">
  <metadata id="CorelCorpID_0Corel-Layer"/>
  <g>
   <path class="fil0" d="M83.51 41.78l-0 0.05 0 0.01c0,0.05 0,0.09 -0,0.14 -0.05,1.11 -0.49,2.21 -1.33,3.05l-37.17 37.17c-0.8,0.8 -1.83,1.24 -2.88,1.32 -0.19,0.05 -0.39,0.06 -0.58,0.01 -1.1,-0.05 -2.18,-0.5 -3.02,-1.33l-37.17 -37.17c-0.82,-0.82 -1.26,-1.88 -1.33,-2.96l0 -0 0 -0.01c-0.01,-0.06 -0.01,-0.11 -0.01,-0.17l0 -0.02 -0 -0.09c0,-1.18 0.45,-2.35 1.34,-3.24l37.17 -37.17c0.85,-0.85 1.96,-1.3 3.09,-1.34 0.19,-0.04 0.4,-0.04 0.6,0.02 1.03,0.1 2.02,0.54 2.81,1.32l37.17 37.17c0.89,0.89 1.34,2.07 1.34,3.24zm-5.25 0.61c-0.13,-0.16 -0.31,-0.28 -0.52,-0.33 -0.54,-0.14 -1.09,0.18 -1.24,0.72 -0.05,0.2 -0.04,0.41 0.02,0.59l1.74 -0.98zm-51.87 -15.61c-0.03,-0.02 -0.05,-0.04 -0.08,-0.06 -0.46,-0.32 -1.09,-0.2 -1.41,0.26 -0.15,0.22 -0.2,0.47 -0.17,0.72l0 0 -0.6 0.33 0 -0c-0.06,-0.08 -0.13,-0.14 -0.22,-0.2 -0.46,-0.32 -1.09,-0.2 -1.41,0.26 -0.19,0.27 -0.23,0.61 -0.12,0.91l-0.41 0.23c-0.07,-0.12 -0.17,-0.23 -0.29,-0.31 -0.46,-0.32 -1.09,-0.2 -1.41,0.26 -0.22,0.31 -0.23,0.71 -0.07,1.03l-0.54 0.3c-0.07,-0.19 -0.2,-0.36 -0.37,-0.48 -0.46,-0.32 -1.09,-0.2 -1.41,0.26 -0.26,0.37 -0.23,0.85 0.03,1.19l-0.45 0.24c-0.05,-0.24 -0.19,-0.46 -0.41,-0.62 -0.46,-0.32 -1.09,-0.2 -1.41,0.26 -0.28,0.41 -0.22,0.95 0.12,1.29l-0.67 0.37c-0.01,-0.32 -0.16,-0.62 -0.44,-0.82 -0.23,-0.16 -0.49,-0.21 -0.75,-0.17l0.56 -0.56c0.28,-0.03 0.54,-0.18 0.72,-0.43 0.1,-0.14 0.15,-0.3 0.17,-0.46l0.5 -0.5c0.05,0.05 0.1,0.1 0.16,0.14 0.46,0.32 1.09,0.2 1.41,-0.26 0.29,-0.42 0.22,-0.98 -0.14,-1.31l0.79 -0.79c-0.2,0.44 -0.07,0.97 0.34,1.26 0.46,0.32 1.09,0.2 1.41,-0.26 0.32,-0.46 0.2,-1.09 -0.26,-1.41 -0.31,-0.21 -0.69,-0.23 -1,-0.09l0.61 -0.61c0.3,-0.02 0.58,-0.17 0.77,-0.44 0.11,-0.16 0.17,-0.33 0.18,-0.51l0.57 -0.57c0.07,0.09 0.15,0.17 0.24,0.24 0.46,0.32 1.09,0.2 1.41,-0.26 0.31,-0.45 0.21,-1.07 -0.23,-1.39l0.77 -0.77c-0.27,0.45 -0.14,1.04 0.3,1.35 0.46,0.32 1.09,0.2 1.41,-0.26 0.32,-0.46 0.2,-1.09 -0.26,-1.41 -0.34,-0.23 -0.76,-0.23 -1.09,-0.04l0.69 -0.69c0.36,0.04 0.72,-0.12 0.94,-0.43 0.14,-0.21 0.2,-0.45 0.17,-0.68l0.4 -0.4c0.07,0.1 0.15,0.19 0.26,0.26 0.46,0.32 1.09,0.2 1.41,-0.26 0.32,-0.46 0.2,-1.09 -0.26,-1.41l-0 -0 1.8 -1.8c0.37,0.05 0.75,-0.1 0.98,-0.43 0.15,-0.22 0.2,-0.48 0.17,-0.72l0.5 -0.49c0.07,0.14 0.18,0.27 0.33,0.37 0.46,0.32 1.09,0.2 1.41,-0.26 0.32,-0.46 0.2,-1.09 -0.26,-1.41 -0.04,-0.02 -0.07,-0.05 -0.11,-0.07l1.77 -1.77c0.41,0.12 0.87,-0.03 1.12,-0.4 0.18,-0.26 0.22,-0.58 0.14,-0.86l0.35 -0.35c0.04,0.08 0.08,0.15 0.13,0.21l0.41 -0.76 0 -0 -1.58 2.92c-0.46,-0.31 -1.08,-0.19 -1.4,0.26 -0.32,0.46 -0.2,1.09 0.26,1.41 0.06,0.04 0.12,0.07 0.18,0.1l-0.58 1.07c-0.02,0.04 -0.05,0.08 -0.06,0.12l-0 0 -0.58 1.06c-0.07,-0.14 -0.18,-0.27 -0.33,-0.37 -0.46,-0.32 -1.09,-0.2 -1.41,0.26 -0.32,0.46 -0.2,1.09 0.26,1.41 0.21,0.14 0.45,0.2 0.68,0.17l-0.28 0.52c-0.3,0.02 -0.59,0.17 -0.77,0.44 -0.23,0.33 -0.23,0.75 -0.05,1.08l-1.21 2.22c-0.44,-0.21 -0.98,-0.07 -1.26,0.34 -0.32,0.46 -0.2,1.09 0.26,1.41 0.01,0.01 0.03,0.02 0.04,0.03l-0.99 1.83 -0.33 0.18zm-1.12 -0.94c0.46,0.32 1.09,0.2 1.41,-0.26 0.32,-0.46 0.2,-1.09 -0.26,-1.41 -0.46,-0.32 -1.09,-0.2 -1.41,0.26 -0.32,0.46 -0.2,1.09 0.26,1.41zm2.52 -3.64c0.46,0.32 1.09,0.2 1.41,-0.26 0.32,-0.46 0.2,-1.09 -0.26,-1.41 -0.46,-0.32 -1.09,-0.2 -1.41,0.26 -0.32,0.46 -0.2,1.09 0.26,1.41zm-4.76 4.71c0.46,0.32 1.09,0.2 1.41,-0.26 0.32,-0.46 0.2,-1.09 -0.26,-1.41 -0.46,-0.32 -1.09,-0.2 -1.41,0.26 -0.32,0.46 -0.2,1.09 0.26,1.41zm2.52 -3.64c0.46,0.32 1.09,0.2 1.41,-0.26 0.32,-0.46 0.2,-1.09 -0.26,-1.41 -0.46,-0.32 -1.09,-0.2 -1.41,0.26 -0.32,0.46 -0.2,1.09 0.26,1.41zm2.52 -3.64c0.46,0.32 1.09,0.2 1.41,-0.26 0.32,-0.46 0.2,-1.09 -0.26,-1.41 -0.46,-0.32 -1.09,-0.2 -1.41,0.26 -0.32,0.46 -0.2,1.09 0.26,1.41zm-7.43 8.38c0.46,0.32 1.09,0.2 1.41,-0.26 0.32,-0.46 0.2,-1.09 -0.26,-1.41 -0.46,-0.32 -1.09,-0.2 -1.41,0.26 -0.32,0.46 -0.2,1.09 0.26,1.41zm-7.16 5.81l0.02 0.01 -0.68 0.37c0.04,-0.31 -0.06,-0.63 -0.29,-0.86l0.53 -0.53c-0.06,0.38 0.09,0.77 0.42,1zm-2.24 1.07c0.05,0.03 0.1,0.06 0.15,0.09l-1.04 0.57 0.02 -0.05 0.73 -0.73c0.04,0.04 0.09,0.08 0.14,0.12zm64.53 8.89c-0.37,-0.01 -0.73,0.19 -0.91,0.51l0.66 -0.37 -1.47 0.83c0.08,-0.1 0.14,-0.22 0.18,-0.36 0.14,-0.54 -0.18,-1.09 -0.72,-1.24 -0.54,-0.14 -1.09,0.18 -1.24,0.72 -0.14,0.54 0.18,1.1 0.72,1.24 0.12,0.03 0.25,0.04 0.37,0.03l-3.74 2.1 0.58 -0.33c-0.09,-0.07 -0.2,-0.12 -0.32,-0.15 -0.54,-0.14 -1.1,0.18 -1.24,0.72 -0.03,0.11 -0.04,0.22 -0.03,0.32l-2.38 1.33c0.11,-0.52 -0.21,-1.05 -0.73,-1.19 -0.54,-0.14 -1.1,0.18 -1.24,0.72 -0.14,0.52 0.15,1.04 0.64,1.22l0.71 -0.4 -3.72 2.09 -0.03 -0.01c-0.54,-0.14 -1.09,0.18 -1.24,0.72l0 0 -2.25 1.27c-0.04,-0.41 -0.33,-0.77 -0.75,-0.88 -0.54,-0.14 -1.1,0.18 -1.24,0.72 -0.11,0.41 0.05,0.83 0.37,1.07l-0.56 0.32c-0.12,-0.12 -0.27,-0.21 -0.45,-0.26 -0.29,-0.08 -0.59,-0.02 -0.83,0.14l-1.02 -0.26c-0.12,-0.26 -0.36,-0.46 -0.65,-0.54 -0.3,-0.08 -0.61,-0.02 -0.84,0.15l-0 0 -0.99 -0.26 0 0c-0.12,-0.27 -0.36,-0.48 -0.66,-0.56 -0.31,-0.08 -0.62,-0.01 -0.86,0.16l-0 0 -0.97 -0.25c-0.12,-0.27 -0.36,-0.49 -0.67,-0.57 -0.32,-0.08 -0.63,-0.01 -0.88,0.17l-0.94 -0.25 0 0c-0.12,-0.28 -0.36,-0.51 -0.68,-0.59 -0.32,-0.09 -0.65,-0.01 -0.89,0.19l-0.92 -0.24c-0.11,-0.29 -0.36,-0.52 -0.68,-0.61 -0.33,-0.09 -0.66,-0 -0.91,0.2l-0.9 -0.23c-0.11,-0.3 -0.36,-0.54 -0.69,-0.63 -0.33,-0.09 -0.67,0 -0.92,0.21l-0.88 -0.23c-0.11,-0.31 -0.36,-0.55 -0.7,-0.64 -0.34,-0.09 -0.69,0 -0.93,0.22l-0.86 -0.22c-0.1,-0.31 -0.36,-0.57 -0.7,-0.66 -0.35,-0.09 -0.7,0.01 -0.95,0.23l-0.37 -0.1 -0.24 -0.93c0.12,0.11 0.26,0.19 0.43,0.24 0.54,0.14 1.1,-0.18 1.24,-0.72 0.14,-0.54 -0.18,-1.1 -0.72,-1.24 -0.52,-0.14 -1.06,0.16 -1.22,0.67l-0.33 -1.27c0.09,0.05 0.18,0.1 0.28,0.12 0.54,0.14 1.1,-0.18 1.24,-0.72 0.14,-0.54 -0.18,-1.1 -0.72,-1.24 -0.46,-0.12 -0.93,0.09 -1.15,0.49l-0.31 -1.2c0.1,0.07 0.21,0.12 0.33,0.16 0.54,0.14 1.1,-0.18 1.24,-0.72 0.14,-0.54 -0.18,-1.1 -0.72,-1.24 -0.48,-0.13 -0.97,0.11 -1.18,0.55l-0.28 -1.09c0.06,0.03 0.12,0.05 0.19,0.07 0.54,0.14 1.09,-0.18 1.24,-0.72 0.14,-0.54 -0.18,-1.1 -0.72,-1.24 -0.43,-0.11 -0.86,0.06 -1.1,0.4l-0.27 -1.05c0.07,0.04 0.15,0.07 0.24,0.1 0.54,0.14 1.1,-0.18 1.24,-0.72 0.14,-0.54 -0.18,-1.09 -0.72,-1.24 -0.44,-0.12 -0.9,0.08 -1.12,0.45l-0.25 -0.96c0.03,0.01 0.07,0.02 0.1,0.03 0.54,0.14 1.09,-0.18 1.24,-0.72 0.14,-0.54 -0.18,-1.1 -0.72,-1.24 -0.39,-0.1 -0.79,0.04 -1.04,0.33l-0.24 -0.93c0.05,0.02 0.1,0.04 0.15,0.05 0.54,0.14 1.1,-0.18 1.24,-0.72 0.14,-0.54 -0.18,-1.1 -0.72,-1.24 -0.41,-0.11 -0.83,0.05 -1.07,0.37l-0.22 -0.85 0.02 0.01c0.54,0.14 1.1,-0.18 1.24,-0.72 0.14,-0.54 -0.18,-1.09 -0.72,-1.24 -0.36,-0.1 -0.73,0.02 -0.98,0.26l-0.16 -0.63 49.52 13.04 -2.97 1.67zm-1.04 -0.44c0.54,0.14 1.1,-0.18 1.24,-0.72 0.14,-0.54 -0.18,-1.1 -0.72,-1.24 -0.54,-0.14 -1.09,0.18 -1.24,0.72 -0.14,0.54 0.18,1.09 0.72,1.24zm-2.39 2.37c-0.09,-0.34 -0.36,-0.62 -0.72,-0.71 -0.54,-0.14 -1.09,0.18 -1.24,0.72 -0.09,0.35 0.01,0.71 0.24,0.95l1.71 -0.96zm-0.1 -3.03c0.54,0.14 1.1,-0.18 1.24,-0.72 0.14,-0.54 -0.18,-1.09 -0.72,-1.24 -0.54,-0.14 -1.1,0.18 -1.24,0.72 -0.14,0.54 0.18,1.1 0.72,1.24zm-1.75 1.77c0.54,0.14 1.1,-0.18 1.24,-0.72 0.14,-0.54 -0.18,-1.1 -0.72,-1.24 -0.54,-0.14 -1.09,0.18 -1.24,0.72 -0.14,0.54 0.18,1.1 0.72,1.24zm-1.89 1.85c0.54,0.14 1.1,-0.18 1.24,-0.72 0.14,-0.54 -0.18,-1.1 -0.72,-1.24 -0.54,-0.14 -1.1,0.18 -1.24,0.72 -0.14,0.54 0.18,1.1 0.72,1.24zm1.14 -4.28c0.54,0.14 1.09,-0.18 1.24,-0.72 0.14,-0.54 -0.18,-1.1 -0.72,-1.24 -0.54,-0.14 -1.1,0.18 -1.24,0.72 -0.14,0.54 0.18,1.1 0.72,1.24zm-2.88 6.05c0.54,0.14 1.1,-0.18 1.24,-0.72 0.14,-0.54 -0.18,-1.1 -0.72,-1.24 -0.54,-0.14 -1.09,0.18 -1.24,0.72 -0.14,0.54 0.18,1.1 0.72,1.24zm1.14 -4.28c0.54,0.14 1.1,-0.18 1.24,-0.72 0.14,-0.54 -0.18,-1.1 -0.72,-1.24 -0.54,-0.14 -1.09,0.18 -1.24,0.72 -0.14,0.54 0.18,1.09 0.72,1.24zm-1.89 1.85c0.54,0.14 1.1,-0.18 1.24,-0.72 0.14,-0.54 -0.18,-1.1 -0.72,-1.24 -0.54,-0.14 -1.1,0.18 -1.24,0.72 -0.14,0.54 0.18,1.1 0.72,1.24zm1.14 -4.28c0.54,0.14 1.09,-0.18 1.24,-0.72 0.14,-0.54 -0.18,-1.1 -0.72,-1.24 -0.54,-0.14 -1.1,0.18 -1.24,0.72 -0.14,0.54 0.18,1.09 0.72,1.24zm-2.89 8.83c-0.13,-0.22 -0.35,-0.4 -0.61,-0.47 -0.54,-0.14 -1.1,0.18 -1.24,0.72 -0.07,0.26 -0.03,0.52 0.09,0.74l1.77 -0.99zm0 -2.79c0.54,0.14 1.1,-0.18 1.24,-0.72 0.14,-0.54 -0.18,-1.1 -0.72,-1.24 -0.54,-0.14 -1.1,0.18 -1.24,0.72 -0.14,0.54 0.18,1.1 0.72,1.24zm1.14 -4.28c0.54,0.14 1.1,-0.18 1.24,-0.72 0.14,-0.54 -0.18,-1.09 -0.72,-1.24 -0.54,-0.14 -1.1,0.18 -1.24,0.72 -0.14,0.54 0.18,1.1 0.72,1.24zm-3.02 6.12c0.54,0.14 1.1,-0.18 1.24,-0.72 0.14,-0.54 -0.18,-1.1 -0.72,-1.24 -0.54,-0.14 -1.09,0.18 -1.24,0.72 -0.14,0.54 0.18,1.09 0.72,1.24zm1.14 -4.28c0.54,0.14 1.1,-0.18 1.24,-0.72 0.14,-0.54 -0.18,-1.09 -0.72,-1.24 -0.54,-0.14 -1.09,0.18 -1.24,0.72 -0.14,0.54 0.18,1.1 0.72,1.24zm1.14 -4.28c0.54,0.14 1.09,-0.18 1.24,-0.72 0.14,-0.54 -0.18,-1.1 -0.72,-1.24 -0.54,-0.14 -1.1,0.18 -1.24,0.72 -0.14,0.54 0.18,1.1 0.72,1.24zm-4.02 10.32c0.54,0.14 1.09,-0.18 1.24,-0.72 0.14,-0.54 -0.18,-1.1 -0.72,-1.24 -0.54,-0.14 -1.1,0.18 -1.24,0.72 -0.14,0.54 0.18,1.09 0.72,1.24zm1.14 -4.28c0.54,0.14 1.1,-0.18 1.24,-0.72 0.14,-0.54 -0.18,-1.09 -0.72,-1.24 -0.54,-0.14 -1.1,0.18 -1.24,0.72 -0.14,0.54 0.18,1.1 0.72,1.24zm1.14 -4.28c0.54,0.14 1.1,-0.18 1.24,-0.72 0.14,-0.54 -0.18,-1.1 -0.72,-1.24 -0.54,-0.14 -1.09,0.18 -1.24,0.72 -0.14,0.54 0.18,1.09 0.72,1.24zm-4.16 10.4c0.54,0.14 1.1,-0.18 1.24,-0.72 0.14,-0.54 -0.18,-1.09 -0.72,-1.24 -0.54,-0.14 -1.1,0.18 -1.24,0.72 -0.14,0.54 0.18,1.09 0.72,1.24zm1.14 -4.28c0.54,0.14 1.1,-0.18 1.24,-0.72 0.14,-0.54 -0.18,-1.1 -0.72,-1.24 -0.54,-0.14 -1.09,0.18 -1.24,0.72 -0.14,0.54 0.18,1.1 0.72,1.24zm1.14 -4.28c0.54,0.14 1.1,-0.18 1.24,-0.72 0.14,-0.54 -0.18,-1.09 -0.72,-1.24 -0.54,-0.14 -1.09,0.18 -1.24,0.72 -0.14,0.54 0.18,1.1 0.72,1.24zm1.14 -4.28c0.54,0.14 1.1,-0.18 1.24,-0.72 0.14,-0.54 -0.18,-1.1 -0.72,-1.24 -0.54,-0.14 -1.09,0.18 -1.24,0.72 -0.14,0.54 0.18,1.09 0.72,1.24zm-4.02 10.32c0.54,0.14 1.09,-0.18 1.24,-0.72 0.14,-0.54 -0.18,-1.09 -0.72,-1.24 -0.54,-0.14 -1.1,0.18 -1.24,0.72 -0.14,0.54 0.18,1.09 0.72,1.24zm1.14 -4.28c0.54,0.14 1.1,-0.18 1.24,-0.72 0.14,-0.54 -0.18,-1.09 -0.72,-1.24 -0.54,-0.14 -1.09,0.18 -1.24,0.72 -0.14,0.54 0.18,1.09 0.72,1.24zm1.14 -4.28c0.54,0.14 1.1,-0.18 1.24,-0.72 0.14,-0.54 -0.18,-1.09 -0.72,-1.24 -0.54,-0.14 -1.09,0.18 -1.24,0.72 -0.14,0.54 0.18,1.09 0.72,1.24zm-4.16 10.4c0.54,0.14 1.1,-0.18 1.24,-0.72 0.14,-0.54 -0.18,-1.1 -0.72,-1.24 -0.54,-0.14 -1.09,0.18 -1.24,0.72 -0.14,0.54 0.18,1.09 0.72,1.24zm1.14 -4.28c0.54,0.14 1.1,-0.18 1.24,-0.72 0.14,-0.54 -0.18,-1.09 -0.72,-1.24 -0.54,-0.14 -1.09,0.18 -1.24,0.72 -0.14,0.54 0.18,1.1 0.72,1.24zm1.14 -4.28c0.54,0.14 1.1,-0.18 1.24,-0.72 0.14,-0.54 -0.18,-1.1 -0.72,-1.24 -0.54,-0.14 -1.1,0.18 -1.24,0.72 -0.14,0.54 0.18,1.09 0.72,1.24zm1.14 -4.28c0.54,0.14 1.09,-0.18 1.24,-0.72 0.14,-0.54 -0.18,-1.09 -0.72,-1.24 -0.54,-0.14 -1.1,0.18 -1.24,0.72 -0.14,0.54 0.18,1.1 0.72,1.24zm-5.16 14.6c0.54,0.14 1.1,-0.18 1.24,-0.72 0.14,-0.54 -0.18,-1.1 -0.72,-1.24 -0.54,-0.14 -1.1,0.18 -1.24,0.72 -0.14,0.54 0.18,1.09 0.72,1.24zm1.14 -4.28c0.54,0.14 1.1,-0.18 1.24,-0.72 0.14,-0.54 -0.18,-1.1 -0.72,-1.24 -0.54,-0.14 -1.09,0.18 -1.24,0.72 -0.14,0.54 0.18,1.09 0.72,1.24zm1.14 -4.28c0.54,0.14 1.1,-0.18 1.24,-0.72 0.14,-0.54 -0.18,-1.1 -0.72,-1.24 -0.54,-0.14 -1.09,0.18 -1.24,0.72 -0.14,0.54 0.18,1.09 0.72,1.24zm1.14 -4.28c0.54,0.14 1.1,-0.18 1.24,-0.72 0.14,-0.54 -0.18,-1.09 -0.72,-1.24 -0.54,-0.14 -1.09,0.18 -1.24,0.72 -0.14,0.54 0.18,1.1 0.72,1.24zm-4.16 10.4c0.54,0.14 1.09,-0.18 1.24,-0.72 0.14,-0.54 -0.18,-1.1 -0.72,-1.24 -0.54,-0.14 -1.1,0.18 -1.24,0.72 -0.14,0.54 0.18,1.1 0.72,1.24zm1.14 -4.28c0.54,0.14 1.1,-0.18 1.24,-0.72 0.14,-0.54 -0.18,-1.1 -0.72,-1.24 -0.54,-0.14 -1.1,0.18 -1.24,0.72 -0.14,0.54 0.18,1.1 0.72,1.24zm1.14 -4.28c0.54,0.14 1.1,-0.18 1.24,-0.72 0.14,-0.54 -0.18,-1.1 -0.72,-1.24 -0.54,-0.14 -1.1,0.18 -1.24,0.72 -0.14,0.54 0.18,1.09 0.72,1.24zm1.14 -4.28c0.54,0.14 1.1,-0.18 1.24,-0.72 0.14,-0.54 -0.18,-1.09 -0.72,-1.24 -0.54,-0.14 -1.1,0.18 -1.24,0.72 -0.14,0.54 0.18,1.09 0.72,1.24zm-5.16 14.6c0.54,0.14 1.1,-0.18 1.24,-0.72 0.14,-0.54 -0.18,-1.1 -0.72,-1.24 -0.54,-0.14 -1.09,0.18 -1.24,0.72 -0.14,0.54 0.18,1.1 0.72,1.24zm1.14 -4.28c0.54,0.14 1.09,-0.18 1.24,-0.72 0.14,-0.54 -0.18,-1.1 -0.72,-1.24 -0.54,-0.14 -1.1,0.18 -1.24,0.72 -0.14,0.54 0.18,1.09 0.72,1.24zm1.14 -4.28c0.54,0.14 1.1,-0.18 1.24,-0.72 0.14,-0.54 -0.18,-1.1 -0.72,-1.24 -0.54,-0.14 -1.09,0.18 -1.24,0.72 -0.14,0.54 0.18,1.1 0.72,1.24zm1.14 -4.28c0.54,0.14 1.1,-0.18 1.24,-0.72 0.14,-0.54 -0.18,-1.1 -0.72,-1.24 -0.54,-0.14 -1.1,0.18 -1.24,0.72 -0.14,0.54 0.18,1.1 0.72,1.24zm-4.16 10.4c0.54,0.14 1.1,-0.18 1.24,-0.72 0.14,-0.54 -0.18,-1.1 -0.72,-1.24 -0.54,-0.14 -1.1,0.18 -1.24,0.72 -0.14,0.54 0.18,1.1 0.72,1.24zm1.14 -4.28c0.54,0.14 1.1,-0.18 1.24,-0.72 0.14,-0.54 -0.18,-1.1 -0.72,-1.24 -0.54,-0.14 -1.1,0.18 -1.24,0.72 -0.14,0.54 0.18,1.09 0.72,1.24zm1.14 -4.28c0.54,0.14 1.09,-0.18 1.24,-0.72 0.14,-0.54 -0.18,-1.1 -0.72,-1.24 -0.54,-0.14 -1.09,0.18 -1.24,0.72 -0.14,0.54 0.18,1.1 0.72,1.24zm1.14 -4.28c0.54,0.14 1.1,-0.18 1.24,-0.72 0.14,-0.54 -0.18,-1.1 -0.72,-1.24 -0.54,-0.14 -1.1,0.18 -1.24,0.72 -0.14,0.54 0.18,1.09 0.72,1.24zm-5.16 14.6c0.54,0.14 1.1,-0.18 1.24,-0.72 0.14,-0.54 -0.18,-1.1 -0.72,-1.24 -0.54,-0.14 -1.1,0.18 -1.24,0.72 -0.14,0.54 0.18,1.09 0.72,1.24zm1.14 -4.28c0.54,0.14 1.09,-0.18 1.24,-0.72 0.14,-0.54 -0.18,-1.1 -0.72,-1.24 -0.54,-0.14 -1.1,0.18 -1.24,0.72 -0.14,0.54 0.18,1.1 0.72,1.24zm1.14 -4.28c0.54,0.14 1.1,-0.18 1.24,-0.72 0.14,-0.54 -0.18,-1.1 -0.72,-1.24 -0.54,-0.14 -1.1,0.18 -1.24,0.72 -0.14,0.54 0.18,1.1 0.72,1.24zm1.14 -4.28c0.54,0.14 1.1,-0.18 1.24,-0.72 0.14,-0.54 -0.18,-1.1 -0.72,-1.24 -0.54,-0.14 -1.1,0.18 -1.24,0.72 -0.14,0.54 0.18,1.1 0.72,1.24zm-4.16 10.4c0.54,0.14 1.1,-0.18 1.24,-0.72 0.14,-0.54 -0.18,-1.1 -0.72,-1.24 -0.54,-0.14 -1.09,0.18 -1.24,0.72 -0.14,0.54 0.18,1.1 0.72,1.24zm1.14 -4.28c0.54,0.14 1.1,-0.18 1.24,-0.72 0.14,-0.54 -0.18,-1.1 -0.72,-1.24 -0.54,-0.14 -1.09,0.18 -1.24,0.72 -0.14,0.54 0.18,1.1 0.72,1.24zm1.14 -4.28c0.54,0.14 1.09,-0.18 1.24,-0.72 0.14,-0.54 -0.18,-1.1 -0.72,-1.24 -0.54,-0.14 -1.1,0.18 -1.24,0.72 -0.14,0.54 0.18,1.1 0.72,1.24zm1.14 -4.28c0.54,0.14 1.1,-0.18 1.24,-0.72 0.14,-0.54 -0.18,-1.1 -0.72,-1.24 -0.54,-0.14 -1.09,0.18 -1.24,0.72 -0.14,0.54 0.18,1.09 0.72,1.24zm-5.16 14.6c0.54,0.14 1.09,-0.18 1.24,-0.72 0.14,-0.54 -0.18,-1.09 -0.72,-1.24 -0.54,-0.14 -1.1,0.18 -1.24,0.72 -0.14,0.54 0.18,1.1 0.72,1.24zm1.14 -4.28c0.54,0.14 1.09,-0.18 1.24,-0.72 0.14,-0.54 -0.18,-1.1 -0.72,-1.24 -0.54,-0.14 -1.1,0.18 -1.24,0.72 -0.14,0.54 0.18,1.1 0.72,1.24zm1.14 -4.28c0.54,0.14 1.1,-0.18 1.24,-0.72 0.14,-0.54 -0.18,-1.09 -0.72,-1.24 -0.54,-0.14 -1.09,0.18 -1.24,0.72 -0.14,0.54 0.18,1.1 0.72,1.24zm1.14 -4.28c0.54,0.14 1.09,-0.18 1.24,-0.72 0.14,-0.54 -0.18,-1.09 -0.72,-1.24 -0.54,-0.14 -1.1,0.18 -1.24,0.72 -0.14,0.54 0.18,1.1 0.72,1.24zm-4.16 10.4c0.54,0.14 1.1,-0.18 1.24,-0.72 0.14,-0.54 -0.18,-1.1 -0.72,-1.24 -0.54,-0.14 -1.09,0.18 -1.24,0.72 -0.14,0.54 0.18,1.1 0.72,1.24zm1.14 -4.28c0.54,0.14 1.1,-0.18 1.24,-0.72 0.14,-0.54 -0.18,-1.1 -0.72,-1.24 -0.54,-0.14 -1.09,0.18 -1.24,0.72 -0.14,0.54 0.18,1.09 0.72,1.24zm1.14 -4.28c0.54,0.14 1.1,-0.18 1.24,-0.72 0.14,-0.54 -0.18,-1.09 -0.72,-1.24 -0.54,-0.14 -1.09,0.18 -1.24,0.72 -0.14,0.54 0.18,1.1 0.72,1.24zm1.14 -4.28c0.54,0.14 1.1,-0.18 1.24,-0.72 0.14,-0.54 -0.18,-1.1 -0.72,-1.24 -0.54,-0.14 -1.1,0.18 -1.24,0.72 -0.14,0.54 0.18,1.1 0.72,1.24zm-5.16 14.6c0.54,0.14 1.09,-0.18 1.24,-0.72 0.14,-0.54 -0.18,-1.09 -0.72,-1.24 -0.54,-0.14 -1.1,0.18 -1.24,0.72 -0.14,0.54 0.18,1.09 0.72,1.24zm1.14 -4.28c0.54,0.14 1.1,-0.18 1.24,-0.72 0.14,-0.54 -0.18,-1.09 -0.72,-1.24 -0.54,-0.14 -1.1,0.18 -1.24,0.72 -0.14,0.54 0.18,1.09 0.72,1.24zm1.14 -4.28c0.54,0.14 1.1,-0.18 1.24,-0.72 0.14,-0.54 -0.18,-1.09 -0.72,-1.24 -0.54,-0.14 -1.09,0.18 -1.24,0.72 -0.14,0.54 0.18,1.1 0.72,1.24zm1.14 -4.28c0.54,0.14 1.1,-0.18 1.24,-0.72 0.14,-0.54 -0.18,-1.1 -0.72,-1.24 -0.54,-0.14 -1.1,0.18 -1.24,0.72 -0.14,0.54 0.18,1.09 0.72,1.24zm-4.16 10.4c0.54,0.14 1.09,-0.18 1.24,-0.72 0.14,-0.54 -0.18,-1.1 -0.72,-1.24 -0.54,-0.14 -1.09,0.18 -1.24,0.72 -0.14,0.54 0.18,1.09 0.72,1.24zm1.14 -4.28c0.54,0.14 1.1,-0.18 1.24,-0.72 0.14,-0.54 -0.18,-1.09 -0.72,-1.24 -0.54,-0.14 -1.1,0.18 -1.24,0.72 -0.14,0.54 0.18,1.1 0.72,1.24zm1.14 -4.28c0.54,0.14 1.09,-0.18 1.24,-0.72 0.14,-0.54 -0.18,-1.1 -0.72,-1.24 -0.54,-0.14 -1.1,0.18 -1.24,0.72 -0.14,0.54 0.18,1.1 0.72,1.24zm1.14 -4.28c0.54,0.14 1.09,-0.18 1.24,-0.72 0.14,-0.54 -0.18,-1.1 -0.72,-1.24 -0.54,-0.14 -1.1,0.18 -1.24,0.72 -0.14,0.54 0.18,1.1 0.72,1.24zm-5.16 14.6c0.54,0.14 1.1,-0.18 1.24,-0.72 0.14,-0.54 -0.18,-1.1 -0.72,-1.24 -0.54,-0.14 -1.09,0.18 -1.24,0.72 -0.14,0.54 0.18,1.09 0.72,1.24zm1.14 -4.28c0.54,0.14 1.1,-0.18 1.24,-0.72 0.14,-0.54 -0.18,-1.09 -0.72,-1.24 -0.54,-0.14 -1.1,0.18 -1.24,0.72 -0.14,0.54 0.18,1.09 0.72,1.24zm1.14 -4.28c0.54,0.14 1.1,-0.18 1.24,-0.72 0.14,-0.54 -0.18,-1.1 -0.72,-1.24 -0.54,-0.14 -1.1,0.18 -1.24,0.72 -0.14,0.54 0.18,1.09 0.72,1.24zm1.14 -4.28c0.54,0.14 1.1,-0.18 1.24,-0.72 0.14,-0.54 -0.18,-1.1 -0.72,-1.24 -0.54,-0.14 -1.1,0.18 -1.24,0.72 -0.14,0.54 0.18,1.1 0.72,1.24zm-4.16 10.4c0.54,0.14 1.1,-0.18 1.24,-0.72 0.14,-0.54 -0.18,-1.1 -0.72,-1.24 -0.54,-0.14 -1.1,0.18 -1.24,0.72 -0.14,0.54 0.18,1.1 0.72,1.24zm1.14 -4.28c0.54,0.14 1.09,-0.18 1.24,-0.72 0.14,-0.54 -0.18,-1.09 -0.72,-1.24 -0.54,-0.14 -1.1,0.18 -1.24,0.72 -0.14,0.54 0.18,1.1 0.72,1.24zm1.14 -4.28c0.54,0.14 1.09,-0.18 1.24,-0.72 0.14,-0.54 -0.18,-1.1 -0.72,-1.24 -0.54,-0.14 -1.1,0.18 -1.24,0.72 -0.14,0.54 0.18,1.09 0.72,1.24zm1.14 -4.28c0.54,0.14 1.09,-0.18 1.24,-0.72 0.14,-0.54 -0.18,-1.09 -0.72,-1.24 -0.54,-0.14 -1.1,0.18 -1.24,0.72 -0.14,0.54 0.18,1.1 0.72,1.24zm-5.16 14.6c0.54,0.14 1.09,-0.18 1.24,-0.72 0.14,-0.54 -0.18,-1.09 -0.72,-1.24 -0.54,-0.14 -1.09,0.18 -1.24,0.72 -0.14,0.54 0.18,1.1 0.72,1.24zm1.14 -4.28c0.54,0.14 1.09,-0.18 1.24,-0.72 0.14,-0.54 -0.18,-1.1 -0.72,-1.24 -0.54,-0.14 -1.09,0.18 -1.24,0.72 -0.14,0.54 0.18,1.1 0.72,1.24zm1.14 -4.28c0.54,0.14 1.1,-0.18 1.24,-0.72 0.14,-0.54 -0.18,-1.1 -0.72,-1.24 -0.54,-0.14 -1.1,0.18 -1.24,0.72 -0.14,0.54 0.18,1.1 0.72,1.24zm1.14 -4.28c0.54,0.14 1.09,-0.18 1.24,-0.72 0.14,-0.54 -0.18,-1.09 -0.72,-1.24 -0.54,-0.14 -1.1,0.18 -1.24,0.72 -0.14,0.54 0.18,1.1 0.72,1.24zm-4.16 10.4c0.54,0.14 1.1,-0.18 1.24,-0.72 0.14,-0.54 -0.18,-1.09 -0.72,-1.24 -0.54,-0.14 -1.1,0.18 -1.24,0.72 -0.14,0.54 0.18,1.1 0.72,1.24zm1.14 -4.28c0.54,0.14 1.1,-0.18 1.24,-0.72 0.14,-0.54 -0.18,-1.1 -0.72,-1.24 -0.54,-0.14 -1.09,0.18 -1.24,0.72 -0.14,0.54 0.18,1.1 0.72,1.24zm1.14 -4.28c0.54,0.14 1.09,-0.18 1.24,-0.72 0.14,-0.54 -0.18,-1.1 -0.72,-1.24 -0.54,-0.14 -1.1,0.18 -1.24,0.72 -0.14,0.54 0.18,1.09 0.72,1.24zm1.14 -4.28c0.54,0.14 1.1,-0.18 1.24,-0.72 0.14,-0.54 -0.18,-1.09 -0.72,-1.24 -0.54,-0.14 -1.09,0.18 -1.24,0.72 -0.14,0.54 0.18,1.09 0.72,1.24zm-5.16 14.6c0.54,0.14 1.09,-0.18 1.24,-0.72 0.14,-0.54 -0.18,-1.1 -0.72,-1.24 -0.54,-0.14 -1.1,0.18 -1.24,0.72 -0.14,0.54 0.18,1.1 0.72,1.24zm1.14 -4.28c0.54,0.14 1.09,-0.18 1.24,-0.72 0.14,-0.54 -0.18,-1.1 -0.72,-1.24 -0.54,-0.14 -1.1,0.18 -1.24,0.72 -0.14,0.54 0.18,1.09 0.72,1.24zm1.14 -4.28c0.54,0.14 1.09,-0.18 1.24,-0.72 0.14,-0.54 -0.18,-1.1 -0.72,-1.24 -0.54,-0.14 -1.1,0.18 -1.24,0.72 -0.14,0.54 0.18,1.1 0.72,1.24zm1.14 -4.28c0.54,0.14 1.09,-0.18 1.24,-0.72 0.14,-0.54 -0.18,-1.1 -0.72,-1.24 -0.54,-0.14 -1.1,0.18 -1.24,0.72 -0.14,0.54 0.18,1.1 0.72,1.24zm-4.16 10.4c0.54,0.14 1.1,-0.18 1.24,-0.72 0.14,-0.54 -0.18,-1.1 -0.72,-1.24 -0.54,-0.14 -1.09,0.18 -1.24,0.72 -0.14,0.54 0.18,1.1 0.72,1.24zm1.14 -4.28c0.54,0.14 1.09,-0.18 1.24,-0.72 0.14,-0.54 -0.18,-1.1 -0.72,-1.24 -0.54,-0.14 -1.1,0.18 -1.24,0.72 -0.14,0.54 0.18,1.09 0.72,1.24zm1.14 -4.28c0.54,0.14 1.1,-0.18 1.24,-0.72 0.14,-0.54 -0.18,-1.1 -0.72,-1.24 -0.54,-0.14 -1.1,0.18 -1.24,0.72 -0.14,0.54 0.18,1.1 0.72,1.24zm1.14 -4.28c0.54,0.14 1.1,-0.18 1.24,-0.72 0.14,-0.54 -0.18,-1.1 -0.72,-1.24 -0.54,-0.14 -1.09,0.18 -1.24,0.72 -0.14,0.54 0.18,1.09 0.72,1.24zm-4.02 10.32c0.54,0.14 1.1,-0.18 1.24,-0.72 0.14,-0.54 -0.18,-1.1 -0.72,-1.24 -0.54,-0.14 -1.09,0.18 -1.24,0.72 -0.14,0.54 0.18,1.1 0.72,1.24zm1.14 -4.28c0.54,0.14 1.09,-0.18 1.24,-0.72 0.14,-0.54 -0.18,-1.1 -0.72,-1.24 -0.54,-0.14 -1.09,0.18 -1.24,0.72 -0.14,0.54 0.18,1.1 0.72,1.24zm1.14 -4.28c0.54,0.14 1.09,-0.18 1.24,-0.72 0.14,-0.54 -0.18,-1.1 -0.72,-1.24 -0.54,-0.14 -1.1,0.18 -1.24,0.72 -0.14,0.54 0.18,1.1 0.72,1.24zm-3.02 6.13c0.54,0.14 1.1,-0.18 1.24,-0.72 0.14,-0.54 -0.18,-1.1 -0.72,-1.24 -0.54,-0.14 -1.1,0.18 -1.24,0.72 -0.14,0.54 0.18,1.1 0.72,1.24zm1.14 -4.28c0.54,0.14 1.1,-0.18 1.24,-0.72 0.14,-0.54 -0.18,-1.1 -0.72,-1.24 -0.54,-0.14 -1.1,0.18 -1.24,0.72 -0.14,0.54 0.18,1.1 0.72,1.24zm1.14 -4.28c0.54,0.14 1.1,-0.18 1.24,-0.72 0.14,-0.54 -0.18,-1.1 -0.72,-1.24 -0.54,-0.14 -1.09,0.18 -1.24,0.72 -0.14,0.54 0.18,1.1 0.72,1.24zm-5.9 13.49c-0.04,0.27 0.04,0.54 0.19,0.74l0 0 0.27 1.06 -27.55 -7.15 0.01 -0.01 0.01 0.01 0.08 -0.08 2.05 -1.12c-0.02,0.47 0.28,0.91 0.75,1.03 0.54,0.14 1.1,-0.18 1.24,-0.72 0.12,-0.45 -0.09,-0.92 -0.48,-1.14l0.46 -0.25c0.13,0.16 0.31,0.28 0.53,0.34 0.54,0.14 1.1,-0.18 1.24,-0.72 0.05,-0.2 0.04,-0.4 -0.02,-0.58l-0.7 0.38 3.26 -1.78c-0.05,0.08 -0.09,0.18 -0.12,0.27 -0.14,0.54 0.18,1.1 0.72,1.24 0.54,0.14 1.09,-0.18 1.24,-0.72 0.14,-0.54 -0.18,-1.09 -0.72,-1.24 -0.08,-0.02 -0.17,-0.03 -0.25,-0.03l-0.27 0.15 1.05 -0.57c0.11,0.31 0.36,0.56 0.7,0.65 0.54,0.14 1.1,-0.18 1.24,-0.72 0.09,-0.32 0.01,-0.65 -0.18,-0.89l-1.34 0.73 12.04 -6.59 0 0 -0 0 -0.1 0.06c-0.05,0.08 -0.08,0.17 -0.11,0.26 -0.13,0.5 0.13,1.02 0.61,1.2l0 0 0.25 0.97c-0.05,0.08 -0.09,0.17 -0.11,0.26 -0.12,0.45 0.09,0.91 0.47,1.14l0.28 1.07 -0 0c-0.06,0.09 -0.11,0.19 -0.14,0.31 -0.13,0.47 0.1,0.95 0.52,1.16l0 0 0.29 1.11 -0 0c-0.02,0.05 -0.04,0.1 -0.06,0.16 -0.11,0.41 0.05,0.84 0.38,1.08l0 0 0.31 1.22 0 0c-0.04,0.07 -0.06,0.14 -0.09,0.22 -0.12,0.43 0.07,0.88 0.43,1.11l0 0 0.33 1.28c-0,0.01 -0.01,0.03 -0.01,0.04 -0.1,0.37 0.02,0.74 0.28,0.99l0 0 0.36 1.41c-0.01,0.03 -0.02,0.07 -0.03,0.11 -0.1,0.39 0.04,0.8 0.33,1.04l0 0 0.39 1.51 0 0zm3.02 -7.44c0.54,0.14 1.1,-0.18 1.24,-0.72 0.14,-0.54 -0.18,-1.09 -0.72,-1.24 -0.54,-0.14 -1.09,0.18 -1.24,0.72 -0.14,0.54 0.18,1.1 0.72,1.24zm1.14 -4.28c0.54,0.14 1.1,-0.18 1.24,-0.72 0.14,-0.54 -0.18,-1.1 -0.72,-1.24 -0.54,-0.14 -1.1,0.18 -1.24,0.72 -0.14,0.54 0.18,1.1 0.72,1.24zm-4.07 13.42c-0.1,-0.33 -0.36,-0.6 -0.71,-0.7 -2.09,-0.55 -0.37,0.42 0.71,0.7zm2.18 -11.57c0.54,0.14 1.09,-0.18 1.24,-0.72 0.14,-0.54 -0.18,-1.09 -0.72,-1.24 -0.54,-0.14 -1.1,0.18 -1.24,0.72 -0.14,0.54 0.18,1.1 0.72,1.24zm1.14 -4.28c0.54,0.14 1.1,-0.18 1.24,-0.72 0.14,-0.54 -0.18,-1.1 -0.72,-1.24 -0.54,-0.14 -1.1,0.18 -1.24,0.72 -0.14,0.54 0.18,1.1 0.72,1.24zm-5.16 14.6c0.54,0.14 1.1,-0.18 1.24,-0.72 0.14,-0.54 -0.18,-1.1 -0.72,-1.24 -0.54,-0.14 -1.09,0.18 -1.24,0.72 -0.14,0.54 0.18,1.09 0.72,1.24zm3.41 -12.83c0.54,0.14 1.1,-0.18 1.24,-0.72 0.14,-0.54 -0.18,-1.1 -0.72,-1.24 -0.54,-0.14 -1.09,0.18 -1.24,0.72 -0.14,0.54 0.18,1.09 0.72,1.24zm-4.78 12.72c-0.37,-0.1 -0.74,0.02 -0.99,0.27 0.95,0.25 3.11,0.29 0.99,-0.27zm0.62 -2.32c0.54,0.14 1.09,-0.18 1.24,-0.72 0.14,-0.54 -0.18,-1.1 -0.72,-1.24 -0.54,-0.14 -1.1,0.18 -1.24,0.72 -0.14,0.54 0.18,1.09 0.72,1.24zm3.41 -12.83c0.54,0.14 1.09,-0.18 1.24,-0.72 0.14,-0.54 -0.18,-1.1 -0.72,-1.24 -0.54,-0.14 -1.1,0.18 -1.24,0.72 -0.14,0.54 0.18,1.09 0.72,1.24zm-5.16 14.6c0.54,0.14 1.1,-0.18 1.24,-0.72 0.14,-0.54 -0.18,-1.09 -0.72,-1.24 -0.54,-0.14 -1.09,0.18 -1.24,0.72 -0.14,0.54 0.18,1.09 0.72,1.24zm1.14 -4.28c0.54,0.14 1.1,-0.18 1.24,-0.72 0.14,-0.54 -0.18,-1.09 -0.72,-1.24 -0.54,-0.14 -1.1,0.18 -1.24,0.72 -0.14,0.54 0.18,1.1 0.72,1.24zm-1.78 4.9c-0.09,-0.35 -0.35,-0.63 -0.72,-0.73 -0.37,-0.1 -0.75,0.02 -1,0.28l1.72 0.45zm-0.1 -3.05c0.54,0.14 1.09,-0.18 1.24,-0.72 0.14,-0.54 -0.18,-1.1 -0.72,-1.24 -0.54,-0.14 -1.09,0.18 -1.24,0.72 -0.14,0.54 0.18,1.1 0.72,1.24zm1.14 -4.28c0.54,0.14 1.09,-0.18 1.24,-0.72 0.14,-0.54 -0.18,-1.09 -0.72,-1.24 -0.54,-0.14 -1.09,0.18 -1.24,0.72 -0.14,0.54 0.18,1.1 0.72,1.24zm-2.88 6.05c0.54,0.14 1.1,-0.18 1.24,-0.72 0.14,-0.54 -0.18,-1.1 -0.72,-1.24 -0.54,-0.14 -1.1,0.18 -1.24,0.72 -0.14,0.54 0.18,1.1 0.72,1.24zm1.14 -4.28c0.54,0.14 1.09,-0.18 1.24,-0.72 0.14,-0.54 -0.18,-1.1 -0.72,-1.24 -0.54,-0.14 -1.1,0.18 -1.24,0.72 -0.14,0.54 0.18,1.09 0.72,1.24zm1.14 -4.28c0.54,0.14 1.09,-0.18 1.24,-0.72 0.14,-0.54 -0.18,-1.09 -0.72,-1.24 -0.54,-0.14 -1.1,0.18 -1.24,0.72 -0.14,0.54 0.18,1.1 0.72,1.24zm-2.91 9.19c-0.08,-0.35 -0.35,-0.65 -0.73,-0.75 -0.38,-0.1 -0.76,0.03 -1.01,0.3l1.74 0.45zm-0.11 -3.07c0.54,0.14 1.09,-0.18 1.24,-0.72 0.14,-0.54 -0.18,-1.09 -0.72,-1.24 -0.54,-0.14 -1.09,0.18 -1.24,0.72 -0.14,0.54 0.18,1.1 0.72,1.24zm1.14 -4.28c0.54,0.14 1.1,-0.18 1.24,-0.72 0.14,-0.54 -0.18,-1.1 -0.72,-1.24 -0.54,-0.14 -1.09,0.18 -1.24,0.72 -0.14,0.54 0.18,1.09 0.72,1.24zm1.14 -4.28c0.54,0.14 1.1,-0.18 1.24,-0.72 0.14,-0.54 -0.18,-1.1 -0.72,-1.24 -0.54,-0.14 -1.09,0.18 -1.24,0.72 -0.14,0.54 0.18,1.1 0.72,1.24zm-4.02 10.32c0.54,0.14 1.1,-0.18 1.24,-0.72 0.14,-0.54 -0.18,-1.1 -0.72,-1.24 -0.54,-0.14 -1.09,0.18 -1.24,0.72 -0.14,0.54 0.18,1.09 0.72,1.24zm1.14 -4.28c0.54,0.14 1.1,-0.18 1.24,-0.72 0.14,-0.54 -0.18,-1.1 -0.72,-1.24 -0.54,-0.14 -1.09,0.18 -1.24,0.72 -0.14,0.54 0.18,1.09 0.72,1.24zm1.14 -4.28c0.54,0.14 1.09,-0.18 1.24,-0.72 0.14,-0.54 -0.18,-1.09 -0.72,-1.24 -0.54,-0.14 -1.1,0.18 -1.24,0.72 -0.14,0.54 0.18,1.1 0.72,1.24zm1.14 -4.28c0.54,0.14 1.1,-0.18 1.24,-0.72 0.14,-0.54 -0.18,-1.1 -0.72,-1.24 -0.54,-0.14 -1.09,0.18 -1.24,0.72 -0.14,0.54 0.18,1.1 0.72,1.24zm-4.05 13.49c-0.08,-0.36 -0.35,-0.66 -0.73,-0.76 -0.38,-0.1 -0.78,0.03 -1.02,0.31l1.75 0.45zm-0.11 -3.08c0.54,0.14 1.1,-0.18 1.24,-0.72 0.14,-0.54 -0.18,-1.1 -0.72,-1.24 -0.54,-0.14 -1.1,0.18 -1.24,0.72 -0.14,0.54 0.18,1.1 0.72,1.24zm1.14 -4.28c0.54,0.14 1.1,-0.18 1.24,-0.72 0.14,-0.54 -0.18,-1.1 -0.72,-1.24 -0.54,-0.14 -1.1,0.18 -1.24,0.72 -0.14,0.54 0.18,1.09 0.72,1.24zm1.14 -4.28c0.54,0.14 1.1,-0.18 1.24,-0.72 0.14,-0.54 -0.18,-1.09 -0.72,-1.24 -0.54,-0.14 -1.09,0.18 -1.24,0.72 -0.14,0.54 0.18,1.1 0.72,1.24zm1.43 -4.24c0.32,-0.01 0.62,-0.18 0.8,-0.44l-0.8 0.44zm-5.45 14.57c0.54,0.14 1.1,-0.18 1.24,-0.72 0.14,-0.54 -0.18,-1.1 -0.72,-1.24 -0.54,-0.14 -1.09,0.18 -1.24,0.72 -0.14,0.54 0.18,1.1 0.72,1.24zm1.14 -4.28c0.54,0.14 1.1,-0.18 1.24,-0.72 0.14,-0.54 -0.18,-1.1 -0.72,-1.24 -0.54,-0.14 -1.1,0.18 -1.24,0.72 -0.14,0.54 0.18,1.1 0.72,1.24zm1.14 -4.28c0.54,0.14 1.1,-0.18 1.24,-0.72 0.14,-0.54 -0.18,-1.1 -0.72,-1.24 -0.54,-0.14 -1.1,0.18 -1.24,0.72 -0.14,0.54 0.18,1.1 0.72,1.24zm1.14 -4.28c0.54,0.14 1.1,-0.18 1.24,-0.72 0.05,-0.19 0.04,-0.39 -0.01,-0.57l-1.74 0.95c0.13,0.16 0.31,0.28 0.52,0.33zm-4.04 13.5c-0.07,-0.37 -0.35,-0.68 -0.73,-0.78 -0.39,-0.1 -0.79,0.03 -1.03,0.32l1.77 0.46zm-0.12 -3.1c0.54,0.14 1.09,-0.18 1.24,-0.72 0.14,-0.54 -0.18,-1.1 -0.72,-1.24 -0.54,-0.14 -1.1,0.18 -1.24,0.72 -0.14,0.54 0.18,1.1 0.72,1.24zm1.14 -4.28c0.54,0.14 1.09,-0.18 1.24,-0.72 0.14,-0.54 -0.18,-1.1 -0.72,-1.24 -0.54,-0.14 -1.1,0.18 -1.24,0.72 -0.14,0.54 0.18,1.1 0.72,1.24zm1.14 -4.28c0.54,0.14 1.09,-0.18 1.24,-0.72 0.12,-0.45 -0.08,-0.91 -0.47,-1.14l-1.52 0.83c-0.02,0.46 0.28,0.9 0.75,1.02zm-4.02 10.32c0.54,0.14 1.1,-0.18 1.24,-0.72 0.14,-0.54 -0.18,-1.09 -0.72,-1.24 -0.54,-0.14 -1.09,0.18 -1.24,0.72 -0.14,0.54 0.18,1.1 0.72,1.24zm1.14 -4.28c0.54,0.14 1.1,-0.18 1.24,-0.72 0.14,-0.54 -0.18,-1.1 -0.72,-1.24 -0.54,-0.14 -1.1,0.18 -1.24,0.72 -0.14,0.54 0.18,1.09 0.72,1.24zm1.14 -4.28c0.54,0.14 1.1,-0.18 1.24,-0.72 0.14,-0.54 -0.18,-1.09 -0.72,-1.24 -0.54,-0.14 -1.09,0.18 -1.24,0.72 -0.14,0.54 0.18,1.1 0.72,1.24zm-2.9 9.24c-0.07,-0.37 -0.34,-0.69 -0.74,-0.8 -0.4,-0.11 -0.8,0.04 -1.04,0.34l1.78 0.46zm-0.12 -3.12c0.54,0.14 1.09,-0.18 1.24,-0.72 0.14,-0.54 -0.18,-1.09 -0.72,-1.24 -0.54,-0.14 -1.1,0.18 -1.24,0.72 -0.14,0.54 0.18,1.1 0.72,1.24zm1.14 -4.28c0.54,0.14 1.09,-0.18 1.24,-0.72 0.14,-0.54 -0.18,-1.1 -0.72,-1.24 -0.54,-0.14 -1.1,0.18 -1.24,0.72 -0.14,0.54 0.18,1.1 0.72,1.24zm-2.88 6.05c0.54,0.14 1.1,-0.18 1.24,-0.72 0.14,-0.54 -0.18,-1.1 -0.72,-1.24 -0.54,-0.14 -1.1,0.18 -1.24,0.72 -0.14,0.54 0.18,1.09 0.72,1.24zm1.14 -4.28c0.54,0.14 1.09,-0.18 1.24,-0.72 0.14,-0.54 -0.18,-1.09 -0.72,-1.24 -0.54,-0.14 -1.1,0.18 -1.24,0.72 -0.14,0.54 0.18,1.1 0.72,1.24zm1.14 -4.28c0.54,0.14 1.09,-0.18 1.24,-0.72 0.02,-0.06 0.03,-0.13 0.03,-0.19l-1.5 0.82c0.07,0.04 0.15,0.07 0.23,0.09zm-2.9 9.26c-0.06,-0.38 -0.34,-0.71 -0.74,-0.81 -0.4,-0.11 -0.81,0.04 -1.05,0.35l1.79 0.46zm-0.12 -3.13c0.54,0.14 1.09,-0.18 1.24,-0.72 0.14,-0.54 -0.18,-1.1 -0.72,-1.24 -0.54,-0.14 -1.1,0.18 -1.24,0.72 -0.14,0.54 0.18,1.09 0.72,1.24zm-1.75 1.77c0.54,0.14 1.1,-0.18 1.24,-0.72 0.14,-0.54 -0.18,-1.09 -0.72,-1.24 -0.54,-0.14 -1.1,0.18 -1.24,0.72 -0.14,0.54 0.18,1.09 0.72,1.24zm-0.62 0.72c-0.06,-0.39 -0.34,-0.72 -0.74,-0.83 -0.41,-0.11 -0.82,0.05 -1.06,0.36l1.81 0.47zm-0.13 -3.15c0.54,0.14 1.1,-0.18 1.24,-0.72 0.14,-0.54 -0.18,-1.09 -0.72,-1.24 -0.54,-0.14 -1.1,0.18 -1.24,0.72 -0.14,0.54 0.18,1.1 0.72,1.24zm-1.75 1.77c0.54,0.14 1.09,-0.18 1.24,-0.72 0.14,-0.54 -0.18,-1.09 -0.72,-1.24 -0.54,-0.14 -1.09,0.18 -1.24,0.72 -0.14,0.54 0.18,1.1 0.72,1.24zm1.42 -4.24c0.33,-0.01 0.64,-0.18 0.83,-0.45l-0.83 0.45zm-2.04 4.98c-0.05,-0.39 -0.34,-0.74 -0.74,-0.85 -0.41,-0.11 -0.83,0.05 -1.07,0.38l1.82 0.47zm-2.49 -0.65c-0.05,-0.4 -0.33,-0.75 -0.75,-0.86 -0.42,-0.11 -0.85,0.06 -1.08,0.39l1.83 0.47zm47.75 14.8l-11.85 21.74 -0.37 0.37 -7.01 -27.1 19.22 4.99zm-6.02 15.91l8.61 -15.81 16.4 -9.21 -25.02 25.02zm-33.94 -36.84l0.41 -0.22 -0.41 0.22zm-7.43 8.62l25.59 6.64 6.61 25.56 -32.2 -32.2z"/>
  </g>
 </g>
</svg>
