<?xml version="1.0" encoding="UTF-8"?>
<!DOCTYPE svg PUBLIC "-//W3C//DTD SVG 1.1//EN" "http://www.w3.org/Graphics/SVG/1.1/DTD/svg11.dtd">
<!-- Creator: CorelDRAW -->
<svg xmlns="http://www.w3.org/2000/svg" xml:space="preserve" width="33.8625mm" height="33.8624mm" version="1.1" style="shape-rendering:geometricPrecision; text-rendering:geometricPrecision; image-rendering:optimizeQuality; fill-rule:evenodd; clip-rule:evenodd"
viewBox="0 0 1496.32 1496.32"
 xmlns:xlink="http://www.w3.org/1999/xlink"
 xmlns:xodm="http://www.corel.com/coreldraw/odm/2003">
 <defs>
  <style type="text/css">
   <![CDATA[
    .fil0 {fill:#2D3F2F}
   ]]>
  </style>
 </defs>
 <g id="Camada_x0020_1">
  <metadata id="CorelCorpID_0Corel-Layer"/>
  <path class="fil0" d="M379.93 648.79c0,-84.63 9.1,-136.33 50.95,-206.23 61.8,-103.24 181.4,-179.54 302.68,-179.54l26.3 0c128.84,0 245.76,79.67 304.5,177.72 42.84,71.51 52.05,121.51 52.05,208.05 0,29.05 -14.93,71.01 -23.8,93.1 -11.53,28.75 -24.5,53.26 -38.52,81.31 -19.26,38.54 -67.69,111 -91.39,145.34 -39.28,56.92 -123.16,162.78 -169.99,215.78 -8.48,9.6 -39.08,39.44 -41.62,48.97l-5.85 0c-2.75,-10.29 -12.92,-16.37 -25.87,-32.58l-27.47 -30.98c-19.62,-21.1 -36.23,-43.17 -54.38,-65.45l-114.4 -151.54c-49.34,-69.53 -143.19,-222.08 -143.19,-303.95zm227.96 -35.07c0,43.53 6.51,78.35 40.06,111.91 90.26,90.25 240.5,17.56 240.5,-88.53 0,-46.34 -6.4,-76.72 -40.08,-111.89 -51.01,-53.26 -145.9,-54.47 -200.38,0.02 -17.71,17.71 -40.1,54.61 -40.1,88.49zm110.56 -613.73l62.43 0c51.25,2.11 102.46,9.43 152.62,22.17 24.64,6.26 47.85,13.58 69.3,21.29 20.74,7.45 45.42,17.32 63.93,26.67 109.52,55.29 201.92,123.69 275.13,221.7 34.29,45.9 59.5,85.88 85.34,139.69 53.07,110.54 69.13,208.32 69.13,342.94 0,148.76 -60.61,297.48 -137.34,406.24 -75.89,107.59 -174.97,189.24 -294.18,246.48 -110.81,53.21 -208,69.13 -342.94,69.13 -102.95,0 -223.07,-36 -292.29,-70.1 -161.89,-79.74 -282.03,-198.13 -360.43,-361.42 -52.19,-108.69 -69.13,-206.36 -69.13,-340.02 0,-79.44 18.25,-158.87 42.71,-229.09 19.95,-57.25 44.59,-101.94 75.43,-152.53 5.84,-9.58 10.97,-17.24 17.53,-26.31 56.27,-77.79 104.32,-124.8 181.65,-180.74 115.11,-83.28 256.57,-130.21 401.13,-136.12z"/>
 </g>
</svg>
