<?xml version="1.0" encoding="UTF-8"?>
<!DOCTYPE svg PUBLIC "-//W3C//DTD SVG 1.1//EN" "http://www.w3.org/Graphics/SVG/1.1/DTD/svg11.dtd">
<!-- Creator: CorelDRAW -->
<svg xmlns="http://www.w3.org/2000/svg" xml:space="preserve" width="33.8624mm" height="33.8623mm" version="1.1" style="shape-rendering:geometricPrecision; text-rendering:geometricPrecision; image-rendering:optimizeQuality; fill-rule:evenodd; clip-rule:evenodd"
viewBox="0 0 6701.08 6701.06"
 xmlns:xlink="http://www.w3.org/1999/xlink"
 xmlns:xodm="http://www.corel.com/coreldraw/odm/2003">
 <defs>
  <style type="text/css">
   <![CDATA[
    .fil0 {fill:#2D3F2F}
   ]]>
  </style>
 </defs>
 <g id="Camada_x0020_1">
  <metadata id="CorelCorpID_0Corel-Layer"/>
  <path class="fil0" d="M2525.99 2813.92c0,213.15 73.6,307.96 217.15,515.78 179.57,259.97 395.72,453.07 644.67,637.96 62.95,46.74 122.32,78.84 192.61,121.53 161.74,98.17 307.58,125.11 481.47,25.05 53.37,-30.71 81.27,-70.85 123.03,-112.58 217.58,-217.62 303.98,-291.59 569.31,-26.18l458.08 458.08c36.55,36.55 78.5,72.45 109.39,113.11 76.64,100.89 95.21,205.21 24.18,314.94 -29.15,45 -335.72,353.51 -392.85,392.42 -568.52,387.21 -1425.21,-121.07 -1874.74,-427.15 -329.31,-224.21 -784.58,-663.23 -1017.93,-958.35 -164.69,-208.28 -354.92,-469.38 -476.7,-714.31 -223.52,-449.51 -456.77,-1068.95 -55.73,-1495.43l30.87 -34.57c1.86,-1.94 4.55,-4.73 6.45,-6.63 1.92,-1.9 4.71,-4.59 6.65,-6.45 284.05,-271.9 365.58,-452.46 689.06,-128.93l458.1 458.08c263.69,263.65 209.75,346.49 -13.1,569.31 -72.8,72.8 -179.96,166.17 -179.96,304.3zm-2525.99 418.82c0,505.3 27.74,779.2 191.26,1248.44 77.99,223.82 149.15,351.87 258.17,553.27 25.29,46.7 48.58,77.87 74.7,121.62 107.44,179.9 310.87,423.33 454.2,566.68 135.79,135.79 278.39,252.77 435.08,363.27 196.66,138.72 291.45,193.32 510.32,301.13 310,152.69 847.93,313.92 1309.01,313.92l17.73 0c369.46,-0.08 546.32,-3.4 919.52,-96.69 112.66,-28.14 205.95,-57.9 311.16,-94.55 429.35,-149.63 692.78,-334.91 1028.92,-594.01 671.33,-517.43 1190.99,-1566.63 1190.99,-2447.48 0,-604.3 -71.32,-1039.58 -309.58,-1535.84 -362.46,-754.86 -874.48,-1244.88 -1614.32,-1618.44 -353.83,-178.66 -907.47,-314.05 -1308.85,-314.05 -504.43,0 -779.71,27.92 -1248.42,191.26 -93.42,32.55 -202.72,75.71 -287.34,118.38l-387.57 214.49c-546.24,326.2 -947.56,838.55 -1230.92,1399.75 -178.68,353.83 -314.07,907.47 -314.07,1308.85z"/>
 </g>
</svg>
