<?xml version="1.0" encoding="UTF-8"?>
<!DOCTYPE svg PUBLIC "-//W3C//DTD SVG 1.1//EN" "http://www.w3.org/Graphics/SVG/1.1/DTD/svg11.dtd">
<!-- Creator: CorelDRAW -->
<svg xmlns="http://www.w3.org/2000/svg" xml:space="preserve" width="18mm" height="17.9999mm" version="1.1" style="shape-rendering:geometricPrecision; text-rendering:geometricPrecision; image-rendering:optimizeQuality; fill-rule:evenodd; clip-rule:evenodd"
viewBox="0 0 49.26 49.26"
 xmlns:xlink="http://www.w3.org/1999/xlink"
 xmlns:xodm="http://www.corel.com/coreldraw/odm/2003">
 <defs>
  <style type="text/css">
   <![CDATA[
    .fil0 {fill:white}
   ]]>
  </style>
 </defs>
 <g id="Camada_x0020_1">
  <metadata id="CorelCorpID_0Corel-Layer"/>
  <path class="fil0" d="M25.21 38.96c-2.22,0 -4.64,-0.58 -6.54,-1.54 -0.39,-0.2 -0.41,-0.31 -0.86,-0.2 -1.23,0.31 -2.44,0.66 -3.66,0.97 -0.6,0.15 -1.28,0.29 -1.84,0.47 -0.61,0.19 -1.29,0.35 -1.91,0.49 0.01,-0.48 0.85,-3.31 1,-3.81l1.02 -3.79c-0.91,-1.36 -1.92,-4.26 -1.92,-6.54 0,-2.86 0.14,-4.62 1.41,-7.15 1.31,-2.62 3.35,-4.97 5.93,-6.38 3.69,-2.02 6.64,-2.36 10.74,-1.57 0.97,0.19 1.79,0.55 2.66,0.9 0.44,0.18 0.75,0.36 1.13,0.6 1.93,1.18 3.31,2.26 4.73,4.21 1.49,2.05 2.73,5.13 2.73,7.95 0,3.37 -0.28,4.7 -1.76,7.66 -0.11,0.22 -0.17,0.36 -0.29,0.57l-1.12 1.58c-0.16,0.21 -0.25,0.27 -0.4,0.46 -0.67,0.85 -1.19,1.27 -2.02,1.92 -0.11,0.09 -0.14,0.14 -0.25,0.23l-1.63 1.06c-1.79,1.12 -4.96,1.9 -7.14,1.9zm-3.75 -15.87c0,0.88 1.89,2.78 2.9,3.54 0.32,0.24 0.45,0.31 0.81,0.54 0.29,0.18 0.51,0.31 0.81,0.44 1.09,0.49 1.09,0.66 1.92,-0.48l0.72 -0.91c0.39,-0.43 1.54,0.27 2.26,0.62l1.35 0.67c0.18,0.11 0.21,0.17 0.39,0.29 0,0.69 -0.05,0.98 -0.25,1.58 -0.36,1.07 -1.98,1.89 -3.02,1.89 -1.81,0 -2.94,-0.51 -4.55,-1.31 -1.16,-0.58 -3.26,-2.2 -4.03,-3.19 -0.67,-0.86 -2.07,-2.47 -2.47,-3.49 -0.42,-1.06 -0.59,-1.25 -0.59,-2.49 0,-1.4 0.99,-3.37 2.5,-3.37 1.28,0 1.23,0.64 2.06,2.66 0.4,0.99 0.74,1.08 -0.3,2.27 -0.13,0.14 -0.5,0.56 -0.5,0.75zm-8.56 0.58l0 1.15c0,2.4 1.15,4.9 2.12,6.35 0.05,0.19 -1.14,3.94 -1.15,4.52 0.57,-0.01 3.77,-0.96 4.62,-1.15 0.23,0.16 0.32,0.21 0.61,0.35 0.3,0.15 0.4,0.26 0.68,0.38 0.52,0.22 0.91,0.4 1.44,0.58 1.25,0.42 2.8,0.71 4.29,0.62 0.35,-0.02 0.7,0.03 1.04,-0.02 2.02,-0.31 2.92,-0.62 4.7,-1.55 0.4,-0.21 0.86,-0.54 1.21,-0.81 1.15,-0.88 1.73,-1.46 2.6,-2.6 2.59,-3.38 3.18,-8.54 1.22,-12.44 -0.33,-0.65 -0.64,-1.33 -1.08,-1.9l-1.4 -1.68c-0.18,-0.14 -0.19,-0.1 -0.38,-0.29 -0.53,-0.51 -1.06,-0.98 -1.72,-1.36l-1.51 -0.8c-3.59,-1.71 -7.47,-1.28 -10.87,0.42l-2.68 1.94 -1.39 1.59c-0.53,0.72 -0.52,0.83 -0.84,1.37 -0.12,0.2 -0.18,0.24 -0.28,0.49 -0.57,1.35 -1.22,2.98 -1.22,4.84zm36.37 0.19l0 1.27c-0.07,2.7 -0.55,5.39 -1.43,7.88 -0.59,1.68 -1.54,3.51 -2.49,5.01 -0.21,0.33 -0.4,0.56 -0.6,0.84 -0.81,1.16 -1.44,1.76 -1.96,2.46l-2.27 2.15c-0.3,0.22 -0.55,0.45 -0.85,0.69 -1.47,1.17 -3.42,2.29 -5.15,3.03 -2.84,1.21 -5.75,1.91 -8.71,2.05l-2.36 0c-1.62,-0.08 -3.26,-0.32 -4.9,-0.73 -2.22,-0.55 -4.92,-1.66 -6.81,-2.91 -0.18,-0.12 -0.3,-0.17 -0.48,-0.29 -1.61,-1.02 -4.35,-3.31 -5.46,-4.83 -0.22,-0.3 -0.45,-0.55 -0.69,-0.85 -1.1,-1.39 -2.02,-3.02 -2.81,-4.6 -0.11,-0.23 -0.13,-0.32 -0.22,-0.55 -1.63,-3.81 -2.05,-6.3 -2.05,-10.65 0,-3.16 0.75,-5.87 1.84,-8.65 0.65,-1.66 2.13,-4.29 3.28,-5.66l2.07 -2.36c0.24,-0.24 0.52,-0.57 0.78,-0.76 0.99,-0.77 2.26,-1.92 3.39,-2.58 0.32,-0.19 0.56,-0.37 0.89,-0.55l1.96 -1.03c1.13,-0.56 3.23,-1.27 4.4,-1.56 1.47,-0.37 3.4,-0.71 5.16,-0.71 5.56,0 8.72,0.83 13.31,3.33l4.26 3.15 2.84 3.12c1.21,1.61 1.92,2.79 2.81,4.6 1.45,2.94 2.19,6.28 2.28,9.65z"/>
 </g>
</svg>
